<?xml version="1.0" encoding="utf-8"?>
<!-- Generator: Adobe Illustrator 24.0.2, SVG Export Plug-In . SVG Version: 6.00 Build 0)  -->
<svg version="1.1" id="Layer_1" xmlns="http://www.w3.org/2000/svg" xmlns:xlink="http://www.w3.org/1999/xlink" x="0px" y="0px"
	 viewBox="0 0 1080 1080" style="enable-background:new 0 0 1080 1080;" xml:space="preserve">
<style type="text/css">
	.st0{fill:#F3D90D;}
	.st1{fill:#FAF287;}
	.st2{fill:#FEDD00;}
	.st3{fill:none;stroke:#FFFFFF;stroke-width:7.1782;stroke-miterlimit:10;}
	.st4{fill:#010101;}
	.st5{fill:#F3D90D;stroke:#231F20;stroke-width:12.7617;stroke-miterlimit:10;}
	.st6{fill:#CBCB30;}
	.st7{fill:#FFFFFF;stroke:#231F20;stroke-width:12.7617;stroke-miterlimit:10;}
	.st8{fill:none;stroke:#231F20;stroke-width:7.9761;stroke-miterlimit:10;}
	.st9{fill:none;stroke:#231F20;stroke-width:9.5713;stroke-miterlimit:10;}
</style>
<path class="st0" d="M949.6,670.3c-6.1,7.3-15.4,9.5-24.6,9.5c-10.6,0-21-2.9-25.9-4.3l-0.7-0.2l-30.7-10.8
	c-9.4,24.7-21.6,48.2-36.5,70.1l16.4,38.8l-41-6.8c-19.4,22.4-41.6,42.2-66,58.9l7,46.1l-50-21.1c-43.2,21.1-89.5,32.7-137.8,34.4
	l-72.6,49.6l-38.5-63.8c-46.7-14-90.5-38.3-127.2-70.6l0.2-0.2l-42.7,4.2l6.2-41c-32-38-55.7-83.2-68.6-130.8L172,621.2l35.6-34.4
	c-1.9-14.5-2.8-29.4-2.8-44.1c0-20.2,1.8-40.4,5.2-60c-11.2-11.6-23.9-25.2-36.2-39.4c-65.5-75.2-65.4-101.7-59.6-115.2
	c3.1-7.3,8.9-12.1,16.8-14c18.6-4.4,49.4,8.8,96.7,41.7c7.9,5.5,15.6,11.1,22.6,16.3c7.7-13.4,16.4-26.4,25.9-38.6l-38.6-81.9
	l103,18.1c21.5-16.3,44.5-29.9,68.6-40.6l-2.2-6.4c-1.8-5.3-3.6-10.6-5.5-15.8c-5.1-14.5-10.2-29-15.3-43.6l-3.9-11
	c-3.3-9.4-2.2-18.3,3-24.5c3.1-3.6,10.2-9.3,23.6-7c14.9,2.6,30,5.3,44.7,8c23.6,4.2,48.1,8.6,72.1,12.7c5.7,1,12.1,0.7,17.4-0.6
	c28.9-7.3,58.3-15,86.7-22.5c11.1-2.9,22.2-5.9,33.4-8.8c13.9-3.7,21.8,1.6,25.2,5c3.4,3.4,8.5,11.1,4.9,24.7
	c-5.2,19.5-10.7,38.5-16.5,58.7c-2.4,8.1-4.7,16.4-7.1,24.7c14.6,5.5,28.7,12.1,42.4,19.6l36.3-22.8l-0.1,45.7
	c19,13.7,36.5,29.4,52.3,46.8l69.4-10.8l-30,63.2c15.2,24.8,27.1,51.4,35.5,79l35.2,14.9l-26.9,18.6c4.2,21.6,6.4,43.7,6.4,65.9
	c0,4.6-0.1,9.1-0.3,13.7c1.5,1.3,3,2.6,4.4,3.9c18.2,16.8,42.7,43.3,56.4,74.7C952.1,638.3,960.4,657.2,949.6,670.3z"/>
<path class="st1" d="M676.6,197.9c-2.4,8.1-4.7,16.4-7.1,24.7c6.8,2.6,13.4,5.3,20,8.4l-5.2,9.2l-28-10.1l-59.2-16.9l-49.5-3
	l-39.7,1.5l-61.2,7.8L412,237.8l-12.3,6.5l-11-5.4c6.7-3.5,13.4-6.8,20.3-9.8l-2.2-6.4c-1.8-5.3-3.6-10.6-5.5-15.9
	c-5.1-14.5-10.2-29-15.3-43.6l-3.9-11c-3.3-9.4-2.2-18.3,3-24.5c3-3.6,10.2-9.3,23.6-7c14.9,2.6,30,5.3,44.7,8
	c23.7,4.2,48.1,8.6,72.1,12.7c5.7,1,12.1,0.7,17.4-0.6c28.9-7.3,58.3-15,86.7-22.5c11.1-2.9,22.2-5.9,33.4-8.8
	c13.9-3.7,21.8,1.6,25.2,5c3.4,3.4,8.5,11.1,4.9,24.7C687.9,158.8,682.4,177.7,676.6,197.9z"/>
<g>
	<g>
		<ellipse class="st2" cx="547" cy="542.9" rx="321.5" ry="321.3"/>
	</g>
</g>
<g>
	<g>
		<g>
			<g>
				<path class="st3" d="M245.4,509.9"/>
			</g>
		</g>
	</g>
	<g>
		<g>
			<path d="M949.6,670.3c-6.1,7.3-15.4,9.5-24.6,9.5c-10.6,0-21-2.9-25.9-4.3l-0.7-0.2l-30.7-10.8l-20.2-7.1l-0.1,0l-36.4-12.7
				l7.6-21.7l36.3,12.7l50.8,17.8c21.4,6,26.2,2.2,26.3,2.2c0.8-1.2-0.1-6.7-2.1-10.9l-0.2-0.5c-12-27.8-34.4-51.9-51-67.2
				c-3.4-3.2-7.2-6.2-11.1-9.1c-13.5-10-27.6-17.4-27.8-17.5l10.6-20.4c0.6,0.3,8.3,4.3,18.1,10.7c6.7,4.3,14.3,9.6,21.3,15.5
				c1.5,1.3,3,2.6,4.4,3.9c18.2,16.8,42.7,43.3,56.4,74.7C952.1,638.3,960.4,657.2,949.6,670.3z"/>
		</g>
	</g>
	<g>
		<g>
			<g>
				<path class="st3" d="M146.4,343.3"/>
			</g>
		</g>
	</g>
	<g>
		<g>
			<path d="M133.9,336.6c-1.3,3.2-5,22.4,56,92.5c14.9,17.1,30.2,33.3,42.8,46.1c15.8,16.1,27.2,26.8,27.4,27l-14.8,15.7
				c-0.2-0.1-6.5-6.2-16.4-16c-0.2-0.2-0.4-0.4-0.7-0.7c-5.3-5.2-11.5-11.5-18.2-18.5c-11.2-11.6-23.9-25.2-36.2-39.4
				c-65.5-75.2-65.4-101.7-59.6-115.2c3.1-7.3,8.9-12.1,16.8-14c18.6-4.4,49.4,8.8,96.7,41.7c7.9,5.5,15.6,11.1,22.6,16.3
				c6.1,4.6,11.8,8.9,16.8,12.8c0.2,0.1,0.3,0.2,0.5,0.4c12.8,10,21.2,17.1,21.8,17.6l-13.9,16.5c-0.1-0.1-7.3-6.2-18.5-15
				c-11-8.7-25.8-20-41.7-31C158.2,333.9,140,334,135.8,335C134.5,335.3,134.3,335.7,133.9,336.6z"/>
		</g>
	</g>
	<g>
		<g>
			<path d="M871.1,655c-1.1,3.2-2.3,6.4-3.5,9.6c-9.4,24.7-21.6,48.2-36.5,70.1c-0.3,0.5-0.6,0.9-0.9,1.4l-17.6-12.1l-0.1-0.1
				c3-4.3,5.8-8.7,8.5-13.2c10.4-16.9,19.2-34.7,26.3-53.2c1.2-3.2,2.4-6.3,3.5-9.5l0.1,0L871.1,655z"/>
		</g>
	</g>
	<g>
		<g>
			<path d="M807.8,765.3c-0.4,0.5-0.8,0.9-1.2,1.4c-12.4,14.4-26.1,27.8-40.7,39.9c-8.1,6.7-16.6,13.1-25.3,19.1
				c-0.8,0.5-1.6,1.1-2.4,1.6l-11.9-17.7l-0.1-0.2c3.6-2.4,7.2-5,10.8-7.6c6.9-5,13.6-10.3,20-15.9c8.5-7.3,16.7-15.1,24.4-23.4
				c3.5-3.7,6.8-7.4,10.1-11.3l0.1,0.1L807.8,765.3z"/>
		</g>
	</g>
	<g>
		<g>
			<path d="M697.7,850.6c0,0-0.1,0-0.1,0.1c-43.2,21.1-89.5,32.7-137.8,34.4c-1.4,0.1-2.7,0.1-4.1,0.1l-0.5-21.1l0-0.4
				c13.9-0.3,27.7-1.5,41.2-3.6c25.5-3.9,50.3-10.8,74.1-20.8c6-2.5,11.9-5.2,17.7-8l0.1,0.2L697.7,850.6z"/>
		</g>
	</g>
	<g>
		<g>
			<path d="M462.8,852.5L462.8,852.5l-0.1,0.5l-4.3,15.9l-1.2,4.4c-2.8-0.8-5.7-1.6-8.5-2.4c-8.1-2.4-16-5.1-23.9-8.2
				c-37.7-14.5-73-35.7-103.4-62.4l0.2-0.2l13.6-15.5l0.3-0.3l0.2-0.2c0.1,0.1,0.1,0.1,0.2,0.2c5.1,4.5,10.3,8.8,15.7,12.9
				c24.3,18.7,51.3,33.9,79.9,45C441.7,846.1,452.2,849.6,462.8,852.5C462.8,852.5,462.8,852.5,462.8,852.5z"/>
		</g>
	</g>
	<g>
		<g>
			<path d="M301.7,749.5l-0.6,0.5l-15.9,13.4c0,0,0-0.1-0.1-0.1c-32-38-55.7-83.2-68.6-130.8c-0.1-0.5-0.2-0.9-0.4-1.4l20-5.3
				l0.8-0.2c1.2,4.4,2.4,8.7,3.8,13c10.7,34.3,27.4,66.9,48.9,95.8C293.6,739.5,297.6,744.5,301.7,749.5z"/>
		</g>
	</g>
	<g>
		<g>
			<path d="M227.3,567.7c0.4,5.5,1,10.9,1.7,16.3l-0.8,0.1l-20.6,2.7v0c-1.9-14.5-2.8-29.4-2.8-44.1c0-20.2,1.8-40.4,5.2-60
				c0.3-1.9,0.7-3.7,1-5.5l20.4,4l0.7,0.1c-1.3,6.8-2.4,13.7-3.3,20.6c-1.7,13.5-2.6,27.2-2.6,40.9
				C226.3,551,226.6,559.4,227.3,567.7z"/>
		</g>
	</g>
	<g>
		<g>
			<path d="M890,542.7c0,4.6-0.1,9.1-0.3,13.7c-0.2,3.9-0.4,7.8-0.7,11.7l-21.4-1.6h0c0.3-3.9,0.5-7.9,0.7-11.8c0.1-2,0.1-4,0.2-6
				c0-1.9,0.1-3.8,0.1-5.8v-0.2c0-0.6,0-1.2,0-1.8c0-7.6-0.3-15.2-0.9-22.7c-0.7-9.4-1.8-18.7-3.3-28c-0.7-4.1-1.4-8.2-2.3-12.3
				l21.1-4.3c0.2,1,0.4,2.1,0.6,3.2C887.8,498.3,890,520.5,890,542.7z"/>
		</g>
	</g>
	<g>
		<g>
			<path d="M875.4,443.6l-20.6,6.2c-1.8-6-3.8-11.9-5.9-17.8c-5.6-15.2-12.3-30-20.2-44.2c-2.5-4.6-5.2-9.1-8-13.6l18.3-11.3
				c0.3,0.4,0.6,0.9,0.8,1.4c15.2,24.8,27.1,51.4,35.5,79C875.3,443.3,875.3,443.5,875.4,443.6z"/>
		</g>
	</g>
	<g>
		<g>
			<path d="M801.5,312.9l-16,14.4c-3.6-3.9-7.2-7.8-11-11.5c-9.5-9.5-19.6-18.5-30.2-26.7c-3.5-2.7-7-5.3-10.6-7.9
				c-0.1-0.1-0.1-0.1-0.2-0.2l0.2-0.3l12.3-17.2c0.7,0.5,1.4,1,2.1,1.5c19,13.7,36.5,29.4,52.3,46.8
				C800.8,312.2,801.1,312.5,801.5,312.9z"/>
		</g>
	</g>
	<g>
		<g>
			<path d="M713.4,242.9l-10.5,18.8c-4-2.2-8-4.3-12-6.3c-23.8-11.9-49.1-20.8-75.2-26.5c-5.2-1.1-10.5-2.2-15.8-3
				c-1.3-0.2-2.6-0.4-4-0.6c-1.3-0.2-2.7-0.4-4-0.6c-2.7-0.4-5.4-0.7-8-1c-4-0.5-8.1-0.9-12.2-1.2c-4.1-0.3-8.2-0.5-12.2-0.7h-0.1
				c-1.2,0-2.3-0.1-3.5-0.1c-0.5,0-1.1,0-1.6,0c-0.9,0-1.9,0-2.8-0.1c-1.4,0-2.7,0-4.1,0c-2.2,0-4.5,0-6.7,0.1
				c-61.4,1.2-119.8,19.5-170.5,53.2c-6.5,4.3-12.8,8.9-19,13.6l-0.2-0.3l-13-16.7c0.8-0.6,1.6-1.2,2.4-1.8
				c15.4-11.7,31.5-22,48.3-30.8c6.7-3.5,13.4-6.8,20.3-9.8c43.1-19.1,89.9-29,138.4-29c41.9,0,83.4,7.7,122.2,22.5
				c6.8,2.6,13.4,5.3,20,8.4c7.6,3.5,15.1,7.2,22.4,11.3C712.4,242.4,712.9,242.7,713.4,242.9z"/>
		</g>
	</g>
	<g>
		<g>
			<path d="M296.1,342.7c-3.3,4.2-6.6,8.5-9.7,12.8c-6.9,9.6-13.2,19.5-19,29.7c-1.5,2.6-2.9,5.3-4.3,7.9l-0.5-0.3l-18.5-9.7
				c2-3.7,4-7.4,6.1-11.1c7.7-13.4,16.4-26.4,25.9-38.6c1.1-1.4,2.2-2.8,3.3-4.2l16.5,13.1L296.1,342.7z"/>
		</g>
	</g>
	<g>
		<g>
			<polygon points="748.3,219.3 748.1,265 748,289.1 744.3,289.1 744.1,289.1 733.7,289 733.7,281.3 733.7,280.7 733.8,245.4 
				705.4,263.3 696.9,268.6 689.3,256.4 690.8,255.5 690.9,255.4 712,242.2 			"/>
		</g>
	</g>
	<g>
		<g>
			<path class="st4" d="M688.2,114.5c-3.4-3.4-11.3-8.7-25.2-5c-11.1,2.9-22.2,5.9-33.4,8.8c-28.4,7.5-57.7,15.3-86.7,22.5
				c-5.3,1.3-11.7,1.6-17.4,0.6c-24.1-4-48.5-8.4-72.1-12.7c-14.6-2.6-29.8-5.3-44.7-8c-13.4-2.3-20.6,3.4-23.6,7
				c-5.2,6.2-6.3,15.1-3,24.5l3.9,11c5.1,14.5,10.2,29.1,15.3,43.6c1.8,5.3,3.6,10.5,5.5,15.9l2.2,6.4l3,8.7l0.8,2.3l10.1-3.4
				c78.9-26.1,155.2-28.3,233.4-6.7l10.3,2.8l2.9-10.3c0,0,0,0,0,0c2.4-8.3,4.7-16.5,7.1-24.7c5.8-20.1,11.3-39.1,16.5-58.7
				C696.8,125.7,691.6,117.9,688.2,114.5z M672.3,133.6c-5.2,19.3-10.7,38.3-16.4,58.3c-1.4,4.9-2.8,9.7-4.2,14.6
				c-75.5-19-149.5-16.8-225.5,6.5c-1.5-4.5-3.1-8.9-4.6-13.4c-5.1-14.5-10.2-29.1-15.3-43.6l-3.9-11c-0.6-1.6-0.7-2.7-0.7-3.2
				c0.6-0.1,1.6-0.2,3.3,0.1c14.9,2.6,30,5.3,44.6,7.9c23.7,4.3,48.2,8.7,72.4,12.7c8.7,1.5,18,1.1,26.2-0.9
				c29.1-7.3,58.5-15.1,86.9-22.6c11.1-2.9,22.2-5.9,33.3-8.8c2.3-0.6,3.6-0.6,4.3-0.5C672.9,130.5,672.9,131.7,672.3,133.6z"/>
		</g>
	</g>
	<g>
		<g>
			<polygon points="910.5,458.2 883.6,476.8 864.2,490.2 864.1,490.2 854.8,496.6 846.7,484.8 861.2,474.8 880.9,461.2 854.8,450.1 
				840.8,444.2 846.4,431 848.7,432 848.8,432 875.3,443.2 			"/>
		</g>
	</g>
	<g>
		<g>
			<polygon points="847.6,773.5 806.5,766.7 781.5,762.6 781.3,762.5 780.8,762.4 783.2,748.3 792.8,749.9 824.2,755.1 811.6,725.4 
				807.2,715 820.4,709.3 821,710.7 821,710.9 831.1,734.7 			"/>
		</g>
	</g>
	<g>
		<g>
			<polygon points="260.2,630 257,642.6 240.8,638.5 239.9,638.3 216.6,632.4 172,621.2 207.6,586.8 226.5,568.4 227.3,567.7 
				228.6,566.4 237.6,575.7 228.2,584.8 197.7,614.3 235.8,623.9 			"/>
		</g>
	</g>
	<g>
		<g>
			<polygon points="357.6,796.5 351.5,797.1 350.5,797.2 321.6,800.1 285.5,803.6 279,804.3 285.2,763.2 289.5,735.2 289.6,734.3 
				289.8,734.3 303.8,736.4 301.7,750.5 297,780.9 295.9,788.2 334.9,784.3 335.5,784.3 335.8,784.3 356.2,782.3 			"/>
		</g>
	</g>
	<g>
		<g>
			<polygon points="602.1,856.1 596.4,860.1 595.7,860.5 559.8,885.1 487.2,934.7 448.7,870.9 431.9,843 431.4,842.1 427.3,835.4 
				445.8,824.3 462.8,852.5 462.8,852.5 463.2,853.2 493.8,904 552.2,864.1 590,838.3 			"/>
		</g>
	</g>
	<g>
		<g>
			<polygon points="747.6,871.7 697.5,850.7 697.3,850.6 697.3,850.6 670.8,839.4 670.5,839.3 666.4,837.6 672,824.4 688.7,831.4 
				717.4,843.4 729.5,848.6 728.1,839.2 723.8,811.2 721.7,797.3 735.9,795.2 736.9,801.8 737,802.1 740.6,825.6 741.7,833.4 			"/>
		</g>
	</g>
	<g>
		<g>
			<polygon points="370.4,274.9 367.2,293.6 348.3,290.3 270.2,276.6 299.2,338.2 305.8,352.2 288.7,360.3 286.4,355.6 286.2,355 
				276,333.5 237.4,251.5 340.4,269.6 369.7,274.8 370.1,274.9 			"/>
		</g>
	</g>
	<g>
		<g>
			<polygon points="869.8,301 839.8,364.2 828.6,387.7 828.6,387.8 821.2,403.4 808.2,397.3 819.8,372.9 845.2,319.3 786.4,328.5 
				762.3,332.2 760.1,318.1 774.4,315.8 774.5,315.8 800.5,311.8 			"/>
		</g>
	</g>
</g>
<path class="st5" d="M370.9,438c46.4,16.9,97.7,28.4,150.2,32.3c6.2,0.5,12.4,0.8,18.7,1.1c5-0.3,10.1-0.6,15.1-1.1
	c48.9-4.8,97.2-20.9,140.4-51.5c5.2-3.7,11.5-8.4,18.5-14.3c-15.8-40.1-51.3-68.1-92.7-68.1c-39.5,0-73.7,25.5-90.4,62.8
	c-17.1-16.8-41.5-27.3-68.5-27.3C417.8,371.9,380.7,400.1,370.9,438z"/>
<path class="st6" d="M518.2,470.4c0.1,0.5,0.2,0.9,0.2,1.4c6.4,0,12.8-0.1,19.2-0.4C531.1,471.2,524.6,470.9,518.2,470.4z"/>
<path class="st6" d="M537.6,471.4c5.1,0.2,10.3,0.3,15.4,0.4c0.1-0.5,0.2-0.9,0.3-1.4C548.1,470.9,542.9,471.2,537.6,471.4z"/>
<path class="st7" d="M370.9,459c0,43.6,37.9,79,84.6,79c26.2,0,49.6-11.1,65.1-28.5c19.6,29.3,54,48.8,93.2,48.8
	c61,0,110.5-47.2,110.5-105.5c0-15.3-3.4-29.8-9.5-42.9c-7.7,5.4-14.5,9.8-20.2,13.2c-51.8,31-110.3,45.8-169.2,48.4
	c-53.2-2.2-105.4-13.4-152.3-30.7C371.7,446.6,370.9,452.7,370.9,459z"/>
<path class="st8" d="M342.2,405.1c0.2,0.8,0.5,1.7,0.8,2.6c1.8,6,5.3,14.5,12.1,22.2c17.4,19.9,41.2,17.6,44.7,17.2"/>
<path class="st9" d="M520.4,471.8c-1.2,0-2.5,0-3.7,0"/>
<path class="st8" d="M695.1,423.2c6-3.3,16.3-10.1,24.8-22.5c12.1-17.7,12.7-35.7,12.6-42.6"/>
<path d="M521.5,601.2c-14.9,0-28.6-4.3-41-12.7c-1.5-1-3-2.2-4.3-3.4c-3.1-2.9-4.2-6.3-1.3-9.7c3.2-3.7,6.4-2.7,10.1,0.1
	c19.6,15.2,40.9,16.6,63.3,6.9c2.8-1.2,5.3-3.3,7.8-5.2c3.9-3,7.7-3.1,10.1,0.2c2.8,3.9,1,6.8-2.2,9.5
	C553.4,595.9,538,601.2,521.5,601.2z"/>
<ellipse class="st1" cx="528.9" cy="722.1" rx="151.1" ry="76.9"/>
</svg>
