<svg fill="#000000" xmlns="http://www.w3.org/2000/svg"  viewBox="0 0 32 32" width="32px" height="32px"><path d="M 13.5 4 C 11.687963 4 10.227942 5.4198276 10.0625 7.1914062 C 8.3252732 7.6262517 7 9.1343646 7 11 C 7 11.299788 7.0992517 11.559688 7.1621094 11.835938 C 6.4915186 12.548479 6 13.443611 6 14.5 C 6 15.982575 6.9347491 17.110913 8.1425781 17.798828 C 8.092602 18.032801 8 18.251951 8 18.5 C 8 20.389453 9.5321598 21.931456 11.410156 21.982422 C 11.556342 22.354085 11.756946 22.697351 12 22.996094 L 12 26 C 12 27.093063 12.906937 28 14 28 L 15 29 L 17 29 L 18 28 C 19.093063 28 20 27.093063 20 26 L 20 22.996094 C 20.243054 22.697351 20.443658 22.354085 20.589844 21.982422 C 22.46784 21.931456 24 20.389453 24 18.5 C 24 18.251951 23.907398 18.032801 23.857422 17.798828 C 25.065251 17.110913 26 15.982575 26 14.5 C 26 13.443611 25.508481 12.548479 24.837891 11.835938 C 24.900748 11.559687 25 11.299788 25 11 C 25 9.1343646 23.674727 7.6262517 21.9375 7.1914062 C 21.772058 5.4198276 20.312037 4 18.5 4 C 17.520813 4 16.637604 4.4157092 16 5.0722656 C 15.362396 4.4157092 14.479187 4 13.5 4 z M 13.5 6 C 14.340812 6 15 6.6591883 15 7.5 L 15 9 C 15 10.116666 14.116666 11 13 11 L 13 13 C 13.742658 13 14.401869 12.738341 15 12.380859 L 15 20 L 17 20 L 17 12.380859 C 17.598131 12.738341 18.257342 13 19 13 L 19 11 C 17.883334 11 17 10.116666 17 9 L 17 7.5 C 17 6.6591883 17.659188 6 18.5 6 C 19.340812 6 20 6.6591883 20 7.5 L 20 9 L 21 9 C 22.116666 9 23 9.8833339 23 11 C 23 11.253248 22.94981 11.495375 22.855469 11.734375 L 22.574219 12.445312 L 23.1875 12.902344 C 23.682985 13.272098 24 13.841227 24 14.5 C 24 15.213943 23.569918 15.742709 23.013672 16.09375 C 22.374896 15.426482 21.488288 15 20.5 15 L 20.5 17 C 21.340812 17 22 17.659188 22 18.5 C 22 19.340812 21.340812 20 20.5 20 L 19 20 L 19 21 C 19 21.56503 18.56503 22 18 22 L 14 22 C 13.43497 22 13 21.56503 13 21 L 13 20 L 11.5 20 C 10.659188 20 10 19.340812 10 18.5 C 10 17.659188 10.659188 17 11.5 17 L 11.5 15 C 10.511712 15 9.625104 15.426482 8.9863281 16.09375 C 8.4300816 15.742709 8 15.213943 8 14.5 C 8 13.841227 8.3170151 13.272098 8.8125 12.902344 L 9.4257812 12.445312 L 9.1445312 11.734375 C 9.0501891 11.495375 9 11.253248 9 11 C 9 9.8833339 9.8833339 9 11 9 L 12 9 L 12 7.5 C 12 6.6591883 12.659188 6 13.5 6 z M 6 7 C 5.448 7 5 7.448 5 8 C 5 8.552 5.448 9 6 9 C 6.552 9 7 8.552 7 8 C 7 7.448 6.552 7 6 7 z M 26 7 C 25.448 7 25 7.448 25 8 C 25 8.552 25.448 9 26 9 C 26.552 9 27 8.552 27 8 C 27 7.448 26.552 7 26 7 z M 4 13 C 3.448 13 3 13.448 3 14 C 3 14.552 3.448 15 4 15 C 4.552 15 5 14.552 5 14 C 5 13.448 4.552 13 4 13 z M 28 13 C 27.448 13 27 13.448 27 14 C 27 14.552 27.448 15 28 15 C 28.552 15 29 14.552 29 14 C 29 13.448 28.552 13 28 13 z M 6 19 C 5.448 19 5 19.448 5 20 C 5 20.552 5.448 21 6 21 C 6.552 21 7 20.552 7 20 C 7 19.448 6.552 19 6 19 z M 26 19 C 25.448 19 25 19.448 25 20 C 25 20.552 25.448 21 26 21 C 26.552 21 27 20.552 27 20 C 27 19.448 26.552 19 26 19 z M 14 24 L 18 24 L 18 26 L 14 26 L 14 24 z"/></svg>