<?xml version="1.0" encoding="utf-8"?>
<!-- Generator: Adobe Illustrator 24.0.2, SVG Export Plug-In . SVG Version: 6.00 Build 0)  -->
<svg version="1.1" id="Layer_1" xmlns="http://www.w3.org/2000/svg" xmlns:xlink="http://www.w3.org/1999/xlink" x="0px" y="0px"
	 viewBox="0 0 1080 1080" style="enable-background:new 0 0 1080 1080;" xml:space="preserve">
<style type="text/css">
	.st0{fill:#F3D90D;}
	.st1{fill:#FAF287;}
	.st2{fill:#FEDD00;}
	.st3{fill:none;stroke:#FFFFFF;stroke-width:7.1782;stroke-miterlimit:10;}
	.st4{fill:#010101;}
	.st5{fill:#231F20;stroke:#231F20;stroke-width:6.3809;stroke-miterlimit:10;}
</style>
<path class="st0" d="M-379.6,320.3c-6.1,7.3-15.4,9.5-24.6,9.5c-10.6,0-21-2.9-25.9-4.3l-0.7-0.2l-30.7-10.8
	c-9.4,24.7-21.6,48.2-36.5,70.1l16.4,38.8l-41-6.8c-19.4,22.4-41.6,42.2-66,58.9l7,46.1l-50-21.1c-43.2,21.1-89.5,32.7-137.8,34.4
	l-72.6,49.6l-38.5-63.8c-46.7-14-90.5-38.3-127.2-70.6l0.2-0.2l-42.7,4.2l6.2-41c-32-38-55.7-83.2-68.6-130.8l-44.6-11.2l35.6-34.4
	c-1.9-14.5-2.8-29.4-2.8-44.1c0-20.2,1.8-40.4,5.2-60c-11.2-11.6-23.9-25.2-36.2-39.4C-1220.9,18.1-1220.8-8.5-1215-22
	c3.1-7.3,8.9-12.1,16.8-14c18.6-4.4,49.4,8.8,96.7,41.7c7.9,5.5,15.6,11.1,22.6,16.3c7.7-13.4,16.4-26.4,25.9-38.6l-38.6-81.9
	l103,18.1c21.5-16.3,44.5-29.9,68.6-40.6l-2.2-6.4c-1.8-5.3-3.6-10.6-5.5-15.8c-5.1-14.5-10.2-29-15.3-43.6l-3.9-11
	c-3.3-9.4-2.2-18.3,3-24.5c3.1-3.6,10.2-9.3,23.6-7c14.9,2.6,30,5.3,44.7,8c23.6,4.2,48.1,8.6,72.1,12.7c5.7,1,12.1,0.7,17.4-0.6
	c28.9-7.3,58.3-15,86.7-22.5c11.1-2.9,22.2-5.9,33.4-8.8c13.9-3.7,21.8,1.6,25.2,5c3.4,3.4,8.5,11.1,4.9,24.7
	c-5.2,19.5-10.7,38.5-16.5,58.7c-2.4,8.1-4.7,16.4-7.1,24.7c14.6,5.5,28.7,12.1,42.4,19.6l36.3-22.8L-581-85
	c19,13.7,36.5,29.4,52.3,46.8l69.4-10.8l-30,63.2c15.2,24.8,27.1,51.4,35.5,79l35.2,14.9l-26.9,18.6c4.2,21.6,6.4,43.7,6.4,65.9
	c0,4.6-0.1,9.1-0.3,13.7c1.5,1.3,3,2.6,4.4,3.9c18.2,16.8,42.7,43.3,56.4,74.7C-377,288.3-368.7,307.2-379.6,320.3z"/>
<path class="st1" d="M-652.5-152.1c-2.4,8.1-4.7,16.4-7.1,24.7c6.8,2.6,13.4,5.3,20,8.4l-5.2,9.2l-28-10.1L-732-137l-49.5-3
	l-39.7,1.5l-61.2,7.8l-34.7,18.4l-12.3,6.5l-11-5.4c6.7-3.5,13.4-6.8,20.3-9.8l-2.2-6.4c-1.8-5.3-3.6-10.6-5.5-15.9
	c-5.1-14.5-10.2-29-15.3-43.6l-3.9-11c-3.3-9.4-2.2-18.3,3-24.5c3-3.6,10.2-9.3,23.6-7c14.9,2.6,30,5.3,44.7,8
	c23.7,4.2,48.1,8.6,72.1,12.7c5.7,1,12.1,0.7,17.4-0.6c28.9-7.3,58.3-15,86.7-22.5c11.1-2.9,22.2-5.9,33.4-8.8
	c13.9-3.7,21.8,1.6,25.2,5c3.4,3.4,8.5,11.1,4.9,24.7C-641.2-191.3-646.7-172.3-652.5-152.1z"/>
<g>
	<g>
		<ellipse class="st2" cx="-782.2" cy="192.9" rx="321.5" ry="321.3"/>
	</g>
</g>
<g>
	<g>
		<g>
			<g>
				<path class="st3" d="M-1083.7,159.9"/>
			</g>
		</g>
	</g>
	<g>
		<g>
			<path d="M-379.6,320.3c-6.1,7.3-15.4,9.5-24.6,9.5c-10.6,0-21-2.9-25.9-4.3l-0.7-0.2l-30.7-10.8l-20.2-7.1l-0.1,0l-36.4-12.7
				l7.6-21.7l36.3,12.7l50.8,17.8c21.4,6,26.2,2.2,26.3,2.2c0.8-1.2-0.1-6.7-2.1-10.9l-0.2-0.5c-12-27.8-34.4-51.9-51-67.2
				c-3.4-3.2-7.2-6.2-11.1-9.1c-13.5-10-27.6-17.4-27.8-17.5l10.6-20.4c0.6,0.3,8.3,4.3,18.1,10.7c6.7,4.3,14.3,9.6,21.3,15.5
				c1.5,1.3,3,2.6,4.4,3.9c18.2,16.8,42.7,43.3,56.4,74.7C-377,288.3-368.7,307.2-379.6,320.3z"/>
		</g>
	</g>
	<g>
		<g>
			<g>
				<path class="st3" d="M-1182.8-6.7"/>
			</g>
		</g>
	</g>
	<g>
		<g>
			<path d="M-1195.2-13.5c-1.3,3.2-5,22.4,56,92.5c14.9,17.1,30.2,33.3,42.8,46.1c15.8,16.1,27.2,26.8,27.4,27l-14.8,15.7
				c-0.2-0.1-6.5-6.2-16.4-16c-0.2-0.2-0.4-0.4-0.7-0.7c-5.3-5.2-11.5-11.5-18.2-18.5c-11.2-11.6-23.9-25.2-36.2-39.4
				C-1220.9,18.1-1220.8-8.5-1215-22c3.1-7.3,8.9-12.1,16.8-14c18.6-4.4,49.4,8.8,96.7,41.7c7.9,5.5,15.6,11.1,22.6,16.3
				c6.1,4.6,11.8,8.9,16.8,12.8c0.2,0.1,0.3,0.2,0.5,0.4c12.8,10,21.2,17.1,21.8,17.6l-13.9,16.5c-0.1-0.1-7.3-6.2-18.5-15
				c-11-8.7-25.8-20-41.7-31c-56.9-39.5-75.1-39.4-79.3-38.3C-1194.6-14.7-1194.9-14.3-1195.2-13.5z"/>
		</g>
	</g>
	<g>
		<g>
			<path d="M-458,305c-1.1,3.2-2.3,6.4-3.5,9.6c-9.4,24.7-21.6,48.2-36.5,70.1c-0.3,0.5-0.6,0.9-0.9,1.4l-17.6-12.1l-0.1-0.1
				c3-4.3,5.8-8.7,8.5-13.2c10.4-16.9,19.2-34.7,26.3-53.2c1.2-3.2,2.4-6.3,3.5-9.5l0.1,0L-458,305z"/>
		</g>
	</g>
	<g>
		<g>
			<path d="M-521.4,415.3c-0.4,0.5-0.8,0.9-1.2,1.4c-12.4,14.4-26.1,27.8-40.7,39.9c-8.1,6.7-16.6,13.1-25.3,19.1
				c-0.8,0.5-1.6,1.1-2.4,1.6l-11.9-17.7l-0.1-0.2c3.6-2.4,7.2-5,10.8-7.6c6.9-5,13.6-10.3,20-15.9c8.5-7.3,16.7-15.1,24.4-23.4
				c3.5-3.7,6.8-7.4,10.1-11.3l0.1,0.1L-521.4,415.3z"/>
		</g>
	</g>
	<g>
		<g>
			<path d="M-631.5,500.6c0,0-0.1,0-0.1,0.1c-43.2,21.1-89.5,32.7-137.8,34.4c-1.4,0.1-2.7,0.1-4.1,0.1l-0.5-21.1l0-0.4
				c13.9-0.3,27.7-1.5,41.2-3.6c25.5-3.9,50.3-10.8,74.1-20.8c6-2.5,11.9-5.2,17.7-8l0.1,0.2L-631.5,500.6z"/>
		</g>
	</g>
	<g>
		<g>
			<path d="M-866.3,502.5L-866.3,502.5l-0.1,0.5l-4.3,15.9l-1.2,4.4c-2.8-0.8-5.7-1.6-8.5-2.4c-8.1-2.4-16-5.1-23.9-8.2
				c-37.7-14.5-73-35.7-103.4-62.4l0.2-0.2l13.6-15.5l0.3-0.3l0.2-0.2c0.1,0.1,0.1,0.1,0.2,0.2c5.1,4.5,10.3,8.8,15.7,12.9
				c24.3,18.7,51.3,33.9,79.9,45C-887.5,496.1-877,499.6-866.3,502.5C-866.3,502.5-866.3,502.5-866.3,502.5z"/>
		</g>
	</g>
	<g>
		<g>
			<path d="M-1027.4,399.4l-0.6,0.5l-15.9,13.4c0,0,0-0.1-0.1-0.1c-32-38-55.7-83.2-68.6-130.8c-0.1-0.5-0.2-0.9-0.4-1.4l20-5.3
				l0.8-0.2c1.2,4.4,2.4,8.7,3.8,13c10.7,34.3,27.4,66.9,48.9,95.8C-1035.5,389.5-1031.5,394.5-1027.4,399.4z"/>
		</g>
	</g>
	<g>
		<g>
			<path d="M-1101.9,217.7c0.4,5.5,1,10.9,1.7,16.3l-0.8,0.1l-20.6,2.7v0c-1.9-14.5-2.8-29.4-2.8-44.1c0-20.2,1.8-40.4,5.2-60
				c0.3-1.9,0.7-3.7,1-5.5l20.4,4l0.7,0.1c-1.3,6.8-2.4,13.7-3.3,20.6c-1.7,13.5-2.6,27.2-2.6,40.9
				C-1102.8,201-1102.5,209.4-1101.9,217.7z"/>
		</g>
	</g>
	<g>
		<g>
			<path d="M-439.2,192.6c0,4.6-0.1,9.1-0.3,13.7c-0.2,3.9-0.4,7.8-0.7,11.7l-21.4-1.6h0c0.3-3.9,0.5-7.9,0.7-11.8
				c0.1-2,0.1-4,0.2-6c0-1.9,0.1-3.8,0.1-5.8v-0.2c0-0.6,0-1.2,0-1.8c0-7.6-0.3-15.2-0.9-22.7c-0.7-9.4-1.8-18.7-3.3-28
				c-0.7-4.1-1.4-8.2-2.3-12.3l21.1-4.3c0.2,1,0.4,2.1,0.6,3.2C-441.3,148.3-439.2,170.5-439.2,192.6z"/>
		</g>
	</g>
	<g>
		<g>
			<path d="M-453.7,93.6l-20.6,6.2c-1.8-6-3.8-11.9-5.9-17.8c-5.6-15.2-12.3-30-20.2-44.2c-2.5-4.6-5.2-9.1-8-13.6l18.3-11.3
				c0.3,0.4,0.6,0.9,0.8,1.4c15.2,24.8,27.1,51.4,35.5,79C-453.8,93.3-453.8,93.4-453.7,93.6z"/>
		</g>
	</g>
	<g>
		<g>
			<path d="M-527.6-37.1l-16,14.4c-3.6-3.9-7.2-7.8-11-11.5c-9.5-9.5-19.6-18.5-30.2-26.7c-3.5-2.7-7-5.3-10.6-7.9
				c-0.1-0.1-0.1-0.1-0.2-0.2l0.2-0.3l12.3-17.2c0.7,0.5,1.4,1,2.1,1.5c19,13.7,36.5,29.4,52.3,46.8
				C-528.3-37.9-528-37.5-527.6-37.1z"/>
		</g>
	</g>
	<g>
		<g>
			<path d="M-615.8-107.1l-10.5,18.8c-4-2.2-8-4.3-12-6.3c-23.8-11.9-49.1-20.8-75.2-26.5c-5.2-1.1-10.5-2.2-15.8-3
				c-1.3-0.2-2.6-0.4-4-0.6c-1.3-0.2-2.7-0.4-4-0.6c-2.7-0.4-5.4-0.7-8-1c-4-0.5-8.1-0.9-12.2-1.2c-4.1-0.3-8.2-0.5-12.2-0.7h-0.1
				c-1.2,0-2.3-0.1-3.5-0.1c-0.5,0-1.1,0-1.6,0c-0.9,0-1.9,0-2.8-0.1c-1.4,0-2.7,0-4.1,0c-2.2,0-4.5,0-6.7,0.1
				c-61.4,1.2-119.8,19.5-170.5,53.2c-6.5,4.3-12.8,8.9-19,13.6l-0.2-0.3l-13-16.7c0.8-0.6,1.6-1.2,2.4-1.8
				c15.4-11.7,31.5-22,48.3-30.8c6.7-3.5,13.4-6.8,20.3-9.8c43.1-19.1,89.9-29,138.4-29c41.9,0,83.4,7.7,122.2,22.5
				c6.8,2.6,13.4,5.3,20,8.4c7.6,3.5,15.1,7.2,22.4,11.3C-616.7-107.6-616.2-107.4-615.8-107.1z"/>
		</g>
	</g>
	<g>
		<g>
			<path d="M-1033-7.3c-3.3,4.2-6.6,8.5-9.7,12.8c-6.9,9.6-13.2,19.5-19,29.7c-1.5,2.6-2.9,5.3-4.3,7.9l-0.5-0.3l-18.5-9.7
				c2-3.7,4-7.4,6.1-11.1c7.7-13.4,16.4-26.4,25.9-38.6c1.1-1.4,2.2-2.8,3.3-4.2l16.5,13.1L-1033-7.3z"/>
		</g>
	</g>
	<g>
		<g>
			<polygon points="-580.9,-130.7 -581,-85 -581.1,-60.9 -584.8,-61 -585.1,-61 -595.5,-61 -595.4,-68.7 -595.4,-69.3 
				-595.3,-104.6 -623.8,-86.8 -632.2,-81.5 -639.8,-93.6 -638.3,-94.6 -638.3,-94.6 -617.2,-107.9 			"/>
		</g>
	</g>
	<g>
		<g>
			<path class="st4" d="M-640.9-235.5c-3.4-3.4-11.3-8.7-25.2-5c-11.1,2.9-22.2,5.9-33.4,8.8c-28.4,7.5-57.7,15.3-86.7,22.5
				c-5.3,1.3-11.7,1.6-17.4,0.6c-24.1-4-48.5-8.4-72.1-12.7c-14.6-2.6-29.8-5.3-44.7-8c-13.4-2.3-20.6,3.4-23.6,7
				c-5.2,6.2-6.3,15.1-3,24.5l3.9,11c5.1,14.5,10.2,29.1,15.3,43.6c1.8,5.3,3.6,10.5,5.5,15.9l2.2,6.4l3,8.7l0.8,2.3l10.1-3.4
				c78.9-26.1,155.2-28.3,233.4-6.7l10.3,2.8l2.9-10.3c0,0,0,0,0,0c2.4-8.3,4.7-16.5,7.1-24.7c5.8-20.1,11.3-39.1,16.5-58.7
				C-632.4-224.4-637.5-232.1-640.9-235.5z M-656.8-216.4c-5.2,19.3-10.7,38.3-16.4,58.3c-1.4,4.9-2.8,9.7-4.2,14.6
				c-75.5-19-149.5-16.8-225.5,6.5c-1.5-4.5-3.1-8.9-4.6-13.4c-5.1-14.5-10.2-29.1-15.3-43.6l-3.9-11c-0.6-1.6-0.7-2.7-0.7-3.2
				c0.6-0.1,1.6-0.2,3.3,0.1c14.9,2.6,30,5.3,44.6,7.9c23.7,4.3,48.2,8.7,72.4,12.7c8.7,1.5,18,1.1,26.2-0.9
				c29.1-7.3,58.5-15.1,86.9-22.6c11.1-2.9,22.2-5.9,33.3-8.8c2.3-0.6,3.6-0.6,4.3-0.5C-656.3-219.6-656.3-218.4-656.8-216.4z"/>
		</g>
	</g>
	<g>
		<g>
			<polygon points="-418.6,108.1 -445.5,126.7 -465,140.2 -465,140.2 -474.3,146.6 -482.4,134.8 -467.9,124.8 -448.3,111.2 
				-474.3,100.1 -488.4,94.2 -482.7,80.9 -480.4,81.9 -480.3,82 -453.8,93.2 			"/>
		</g>
	</g>
	<g>
		<g>
			<polygon points="-481.6,423.4 -522.6,416.7 -547.6,412.5 -547.8,412.5 -548.3,412.4 -546,398.3 -536.3,399.9 -505,405 
				-517.5,375.3 -522,364.9 -508.7,359.3 -508.2,360.7 -508.1,360.9 -498,384.6 			"/>
		</g>
	</g>
	<g>
		<g>
			<polygon points="-1069,280 -1072.1,292.5 -1088.3,288.5 -1089.2,288.3 -1112.5,282.4 -1157.1,271.2 -1121.6,236.7 -1102.6,218.4 
				-1101.9,217.7 -1100.6,216.4 -1091.6,225.7 -1100.9,234.7 -1131.5,264.3 -1093.3,273.9 			"/>
		</g>
	</g>
	<g>
		<g>
			<polygon points="-971.6,446.5 -977.6,447.1 -978.6,447.2 -1007.5,450.1 -1043.6,453.6 -1050.2,454.2 -1043.9,413.2 
				-1039.7,385.2 -1039.5,384.3 -1039.3,384.3 -1025.3,386.4 -1027.5,400.5 -1032.1,430.8 -1033.2,438.1 -994.2,434.3 -993.6,434.3 
				-993.3,434.2 -973,432.2 			"/>
		</g>
	</g>
	<g>
		<g>
			<polygon points="-727,506.1 -732.8,510 -733.4,510.5 -769.4,535 -842,584.6 -880.4,520.8 -897.2,492.9 -897.7,492.1 
				-901.8,485.4 -883.4,474.2 -866.3,502.5 -866.3,502.5 -865.9,503.1 -835.3,554 -776.9,514.1 -739.2,488.3 			"/>
		</g>
	</g>
	<g>
		<g>
			<polygon points="-581.6,521.7 -631.6,500.7 -631.8,500.6 -631.8,500.6 -658.3,489.4 -658.6,489.3 -662.7,487.6 -657.1,474.3 
				-640.5,481.3 -611.8,493.4 -599.6,498.5 -601,489.2 -605.3,461.2 -607.4,447.3 -593.2,445.1 -592.2,451.8 -592.1,452 
				-588.6,475.6 -587.4,483.3 			"/>
		</g>
	</g>
	<g>
		<g>
			<polygon points="-958.7,-75.1 -962,-56.4 -980.8,-59.7 -1058.9,-73.5 -1029.9,-11.9 -1023.3,2.2 -1040.5,10.3 -1042.7,5.5 
				-1043,5 -1053.1,-16.6 -1091.7,-98.5 -988.7,-80.4 -959.4,-75.2 -959,-75.2 			"/>
		</g>
	</g>
	<g>
		<g>
			<polygon points="-459.3,-49 -489.3,14.1 -500.5,37.7 -500.6,37.8 -508,53.4 -521,47.3 -509.3,22.8 -483.9,-30.7 -542.7,-21.5 
				-566.8,-17.8 -569,-32 -554.7,-34.2 -554.6,-34.2 -528.7,-38.2 			"/>
		</g>
	</g>
</g>
<path class="st5" d="M442.5,473.5c-2.7,9.1,10,24.5,24.5,24.5c14.6,0,27.2-15.4,24.5-24.5c-2.5-8.2-17.1-10.3-24-10.4
	C459.8,463,444.9,465.2,442.5,473.5z"/>
<path d="M-807.6,251.1c-14.9,0-28.6-4.3-41-12.7c-1.5-1-3-2.2-4.3-3.4c-3.1-2.9-4.2-6.3-1.3-9.7c3.2-3.7,6.4-2.7,10.1,0.1
	c19.6,15.2,40.9,16.6,63.3,6.9c2.8-1.2,5.3-3.3,7.8-5.2c3.9-3,7.7-3.1,10.1,0.2c2.8,3.9,1,6.8-2.2,9.5
	C-775.7,245.9-791.1,251.2-807.6,251.1z"/>
<ellipse class="st1" cx="-800.2" cy="372.1" rx="151.1" ry="76.9"/>
</svg>
