<?xml version="1.0" encoding="utf-8"?>
<!-- Generator: Adobe Illustrator 24.0.2, SVG Export Plug-In . SVG Version: 6.00 Build 0)  -->
<svg version="1.1" id="Layer_1" xmlns="http://www.w3.org/2000/svg" xmlns:xlink="http://www.w3.org/1999/xlink" x="0px" y="0px"
	 viewBox="0 0 64 64" style="enable-background:new 0 0 64 64;" xml:space="preserve">
<style type="text/css">
	.st0{fill:#FFDE17;}
	.st1{fill:none;stroke:#000000;stroke-width:2.0419;stroke-miterlimit:10;}
	.st2{fill:#CCCB31;}
	.st3{fill:#FFFFFF;}
	.st4{fill:none;stroke:#000000;stroke-width:1.2762;stroke-miterlimit:10;}
	.st5{fill:none;stroke:#000000;stroke-width:1.5314;stroke-miterlimit:10;}
	.st6{fill:none;stroke:#000000;stroke-width:1.0209;stroke-miterlimit:10;}
</style>
<g>
	<path class="st0" d="M5.4,30.5c7.4,2.7,15.6,4.5,24,5.2c1,0.1,2,0.1,3,0.2c0.8,0,1.6-0.1,2.4-0.2c7.8-0.8,15.6-3.3,22.5-8.2
		c0.8-0.6,1.8-1.3,3-2.3c-2.5-6.4-8.2-10.9-14.8-10.9c-6.3,0-11.8,4.1-14.5,10.1c-2.7-2.7-6.6-4.4-11-4.4
		C12.9,19.9,6.9,24.4,5.4,30.5"/>
	<path class="st1" d="M5.4,30.5c7.4,2.7,15.6,4.5,24,5.2c1,0.1,2,0.1,3,0.2c0.8,0,1.6-0.1,2.4-0.2c7.8-0.8,15.6-3.3,22.5-8.2
		c0.8-0.6,1.8-1.3,3-2.3c-2.5-6.4-8.2-10.9-14.8-10.9c-6.3,0-11.8,4.1-14.5,10.1c-2.7-2.7-6.6-4.4-11-4.4
		C12.9,19.9,6.9,24.4,5.4,30.5z"/>
	<path class="st2" d="M28.9,35.7c0,0.1,0,0.1,0,0.2c1,0,2,0,3.1-0.1C31,35.8,30,35.8,28.9,35.7"/>
	<path class="st2" d="M32,35.9c0.8,0,1.6,0,2.5,0.1c0-0.1,0-0.1,0-0.2C33.7,35.8,32.9,35.8,32,35.9"/>
	<path class="st3" d="M5.4,33.9c0,7,6.1,12.6,13.5,12.6c4.2,0,7.9-1.8,10.4-4.6c3.1,4.7,8.6,7.8,14.9,7.8c9.8,0,17.7-7.6,17.7-16.9
		c0-2.4-0.5-4.8-1.5-6.9c-1.2,0.9-2.3,1.6-3.2,2.1c-8.3,5-17.7,7.3-27.1,7.7c-8.5-0.4-16.9-2.1-24.4-4.9C5.5,31.9,5.4,32.9,5.4,33.9
		"/>
	<path class="st1" d="M5.4,33.9c0,7,6.1,12.6,13.5,12.6c4.2,0,7.9-1.8,10.4-4.6c3.1,4.7,8.6,7.8,14.9,7.8c9.8,0,17.7-7.6,17.7-16.9
		c0-2.4-0.5-4.8-1.5-6.9c-1.2,0.9-2.3,1.6-3.2,2.1c-8.3,5-17.7,7.3-27.1,7.7c-8.5-0.4-16.9-2.1-24.4-4.9C5.5,31.9,5.4,32.9,5.4,33.9
		z"/>
	<path class="st4" d="M0.8,25.2c0,0.1,0.1,0.3,0.1,0.4c0.3,1,0.9,2.3,1.9,3.6C5.6,32.4,9.4,32,10,32"/>
	<path class="st5" d="M29.3,35.9c-0.2,0-0.4,0-0.6,0"/>
	<path class="st4" d="M57.2,28.1c1-0.5,2.6-1.6,4-3.6c1.9-2.8,2-5.7,2-6.8"/>
	<path d="M16.4,35.9c-0.4,1.5,1.6,3.9,3.9,3.9c2.3,0,4.4-2.5,3.9-3.9c-0.4-1.3-2.7-1.7-3.8-1.7C19.2,34.2,16.8,34.6,16.4,35.9"/>
	<path class="st6" d="M16.4,35.9c-0.4,1.5,1.6,3.9,3.9,3.9c2.3,0,4.4-2.5,3.9-3.9c-0.4-1.3-2.7-1.7-3.8-1.7
		C19.2,34.2,16.8,34.6,16.4,35.9z"/>
	<path d="M38.1,35.8c-0.4,1.6,1.6,3.9,3.9,3.9c2.3,0,4.3-2.4,3.9-3.9c-0.3-1.3-2.3-1.7-2.7-1.8C41.3,33.7,38.5,34.3,38.1,35.8"/>
	<path class="st6" d="M38.1,35.8c-0.4,1.6,1.6,3.9,3.9,3.9c2.3,0,4.3-2.4,3.9-3.9c-0.3-1.3-2.3-1.7-2.7-1.8
		C41.3,33.7,38.5,34.3,38.1,35.8z"/>
</g>
</svg>
