<?xml version="1.0" encoding="utf-8"?>
<!-- Generator: Adobe Illustrator 24.0.2, SVG Export Plug-In . SVG Version: 6.00 Build 0)  -->
<svg version="1.1" id="Layer_1" xmlns="http://www.w3.org/2000/svg" xmlns:xlink="http://www.w3.org/1999/xlink" x="0px" y="0px"
	 viewBox="0 0 1920 1080" style="enable-background:new 0 0 1920 1080;" xml:space="preserve">
<style type="text/css">
	.st0{fill:#FFDE17;stroke:#000000;stroke-miterlimit:10;}
	.st1{fill:#FFDE17;}
	.st2{fill:none;stroke:#000000;stroke-width:33.6229;stroke-miterlimit:10;}
	.st3{fill:#CCCB31;}
	.st4{fill:#FFFFFF;}
	.st5{fill:none;stroke:#000000;stroke-width:21.0143;stroke-miterlimit:10;}
	.st6{fill:none;stroke:#000000;stroke-width:25.2172;stroke-miterlimit:10;}
	.st7{fill:none;stroke:#000000;stroke-width:16.8115;stroke-miterlimit:10;}
</style>
<rect class="st0" width="1920" height="1080"/>
<g>
	<path class="st1" d="M1655.1,978.4c44.6-122.3,74.9-257.5,85.2-395.8c1.2-16.4,2.2-32.8,2.8-49.2c-0.7-13.3-1.7-26.5-3-39.8
		c-12.6-128.9-55-256.1-135.7-369.8c-9.7-13.7-22.1-30.2-37.7-48.7c-105.7,41.6-179.5,135.3-179.5,244.1
		c0,104,67.3,194.2,165.6,238.3c-44.2,45.1-71.9,109.3-71.9,180.5C1481.1,854.8,1555.3,952.6,1655.1,978.4"/>
	<path class="st2" d="M1655.1,978.4c44.6-122.3,74.9-257.5,85.2-395.8c1.2-16.4,2.2-32.8,2.8-49.2c-0.7-13.3-1.7-26.5-3-39.8
		c-12.6-128.9-55-256.1-135.7-369.8c-9.7-13.7-22.1-30.2-37.7-48.7c-105.7,41.6-179.5,135.3-179.5,244.1
		c0,104,67.3,194.2,165.6,238.3c-44.2,45.1-71.9,109.3-71.9,180.5C1481.1,854.8,1555.3,952.6,1655.1,978.4z"/>
	<path class="st3" d="M1740.6,590.4c1.2-0.2,2.4-0.4,3.6-0.6c0.1-16.9-0.3-33.7-1-50.6C1742.6,556.3,1741.7,573.4,1740.6,590.4"/>
	<path class="st3" d="M1743.2,539.2c0.5-13.5,0.8-27.1,0.9-40.7c-1.2-0.2-2.4-0.5-3.7-0.7C1741.7,511.6,1742.6,525.4,1743.2,539.2"
		/>
	<path class="st4" d="M1710.3,978.4c115,0,208.2-99.8,208.2-223c0-68.9-29.2-130.6-75.1-171.5c77.3-51.7,128.5-142.3,128.5-245.5
		c0-160.8-124.4-291.1-278-291.1c-40.2,0-78.4,8.9-113,25c14.4,20.2,25.8,38.2,34.7,53.1c81.7,136.4,120.7,290.7,127.4,445.7
		c-5.8,140-35.2,277.8-81,401.1C1677.7,976.3,1693.8,978.4,1710.3,978.4"/>
	<path class="st2" d="M1710.3,978.4c115,0,208.2-99.8,208.2-223c0-68.9-29.2-130.6-75.1-171.5c77.3-51.7,128.5-142.3,128.5-245.5
		c0-160.8-124.4-291.1-278-291.1c-40.2,0-78.4,8.9-113,25c14.4,20.2,25.8,38.2,34.7,53.1c81.7,136.4,120.7,290.7,127.4,445.7
		c-5.8,140-35.2,277.8-81,401.1C1677.7,976.3,1693.8,978.4,1710.3,978.4z"/>
	<path class="st5" d="M1568.5,1054.1c2.1-0.6,4.5-1.2,7-2c15.8-4.8,38.1-14,58.5-31.8c52.5-45.8,46.5-108.6,45.4-117.7"/>
	<path class="st6" d="M1744.2,584.6c0,3.3,0,6.5-0.1,9.8"/>
	<path class="st5" d="M1616.2,124.3c-8.7-15.7-26.7-43-59.2-65.2c-46.6-31.8-94.1-33.5-112.2-33.2"/>
	<path d="M1744.3,797c24.1,7.1,64.6-26.3,64.6-64.6c0-38.4-40.6-71.8-64.6-64.6c-21.7,6.5-27.2,45.1-27.4,63.3
		C1716.6,751.3,1722.4,790.5,1744.3,797"/>
	<path class="st7" d="M1744.3,797c24.1,7.1,64.6-26.3,64.6-64.6c0-38.4-40.6-71.8-64.6-64.6c-21.7,6.5-27.2,45.1-27.4,63.3
		C1716.6,751.3,1722.4,790.5,1744.3,797z"/>
	<path d="M1742.9,439.7c25.7,6.5,64.6-26.9,64.6-64.6c0-38.1-39.6-71.5-64.6-64.6c-20.8,5.8-27.5,38.3-28.8,45.1
		C1707.6,387.3,1717.1,433.1,1742.9,439.7"/>
	<path class="st7" d="M1742.9,439.7c25.7,6.5,64.6-26.9,64.6-64.6c0-38.1-39.6-71.5-64.6-64.6c-20.8,5.8-27.5,38.3-28.8,45.1
		C1707.6,387.3,1717.1,433.1,1742.9,439.7z"/>
</g>
</svg>
