<?xml version="1.0" encoding="utf-8"?>
<!-- Generator: Adobe Illustrator 24.0.2, SVG Export Plug-In . SVG Version: 6.00 Build 0)  -->
<svg version="1.1" id="Layer_1" xmlns="http://www.w3.org/2000/svg" xmlns:xlink="http://www.w3.org/1999/xlink" x="0px" y="0px"
	 viewBox="0 0 1080 1920" style="enable-background:new 0 0 1080 1920;" xml:space="preserve">
<style type="text/css">
	.st0{fill:#FEDD11;stroke:#000000;stroke-miterlimit:10;}
	.st1{fill:#FFDE17;}
	.st2{fill:none;stroke:#000000;stroke-width:33.6229;stroke-miterlimit:10;}
	.st3{fill:#CCCB31;}
	.st4{fill:#FFFFFF;}
	.st5{fill:none;stroke:#000000;stroke-width:21.0143;stroke-miterlimit:10;}
	.st6{fill:none;stroke:#000000;stroke-width:25.2172;stroke-miterlimit:10;}
	.st7{fill:none;stroke:#000000;stroke-width:16.8115;stroke-miterlimit:10;}
</style>
<rect x="-420" y="420" transform="matrix(-1.836970e-16 1 -1 -1.836970e-16 1500 420)" class="st0" width="1920" height="1080"/>
<g>
	<path class="st1" d="M1020.7,738.4c-19.5-128.7-57.6-261.9-114.8-388.3c-6.8-15-13.8-29.8-21.1-44.6c-7-11.3-14.2-22.5-21.7-33.5
		C790.4,164.9,692.3,73.6,567,12.4c-15.1-7.4-33.9-15.9-56.5-24.7c-72.9,87.2-92.7,204.7-40.6,300.3
		c49.8,91.3,152.1,138.2,259.5,129.9c-17.2,60.8-10.7,130.4,23.4,192.9C808.7,713.3,920.7,763.6,1020.7,738.4"/>
	<path class="st2" d="M1020.7,738.4c-19.5-128.7-57.6-261.9-114.8-388.3c-6.8-15-13.8-29.8-21.1-44.6c-7-11.3-14.2-22.5-21.7-33.5
		C790.4,164.9,692.3,73.6,567,12.4c-15.1-7.4-33.9-15.9-56.5-24.7c-72.9,87.2-92.7,204.7-40.6,300.3
		c49.8,91.3,152.1,138.2,259.5,129.9c-17.2,60.8-10.7,130.4,23.4,192.9C808.7,713.3,920.7,763.6,1020.7,738.4z"/>
	<path class="st3" d="M909.9,356.9c1-0.8,1.9-1.5,2.9-2.3c-8-14.8-16.4-29.5-25.1-43.9C895.3,326,902.7,341.4,909.9,356.9"/>
	<path class="st3" d="M887.6,310.7c-6.1-12.1-12.3-24.2-18.7-36.2c-1.2,0.4-2.4,0.7-3.6,1.1C873.1,287.2,880.5,298.9,887.6,310.7"/>
	<path class="st4" d="M1069.2,712c100.9-55.1,134.9-187.3,75.9-295.4c-33-60.5-88.2-100.6-148-114.6c43.1-82.4,44.7-186.5-4.8-277.1
		C915.3-116.2,743.6-171,608.9-97.5c-35.3,19.3-64.6,45.4-87.2,76.1c22.3,10.8,40.9,21.2,55.9,30C714.7,89.2,822.8,206,903,338.8
		c62,125.7,102.2,260.7,121.1,390.9C1039.5,725.8,1054.6,719.9,1069.2,712"/>
	<path class="st2" d="M1069.2,712c100.9-55.1,134.9-187.3,75.9-295.4c-33-60.5-88.2-100.6-148-114.6c43.1-82.4,44.7-186.5-4.8-277.1
		C915.3-116.2,743.6-171,608.9-97.5c-35.3,19.3-64.6,45.4-87.2,76.1c22.3,10.8,40.9,21.2,55.9,30C714.7,89.2,822.8,206,903,338.8
		c62,125.7,102.2,260.7,121.1,390.9C1039.5,725.8,1054.6,719.9,1069.2,712z"/>
	<path class="st5" d="M980.9,846.4c1.6-1.5,3.3-3.2,5.2-5.1c11.6-11.8,26.7-30.5,36.1-55.9c24.2-65.3-11.2-117.6-16.5-125.1"/>
	<path class="st6" d="M910.3,350c1.6,2.9,3.1,5.7,4.6,8.6"/>
	<path class="st5" d="M577.4,7.3c-15.2-9.6-44-25-83.2-28.9C438-27.2,395.5-5.9,379.7,3"/>
	<path d="M1012,536.4c24.6-5.3,44.1-54,25.8-87.7c-18.4-33.7-70-43.6-87.7-25.8c-15.9,16-2.2,52.6,6.3,68.7
		C965.9,509.6,989.7,541.2,1012,536.4"/>
	<path class="st7" d="M1012,536.4c24.6-5.3,44.1-54,25.8-87.7c-18.4-33.7-70-43.6-87.7-25.8c-15.9,16-2.2,52.6,6.3,68.7
		C965.9,509.6,989.7,541.2,1012,536.4z"/>
	<path d="M839.7,223.5c25.7-6.6,43.8-54.6,25.8-87.7c-18.2-33.5-69-43.8-87.7-25.8c-15.5,15-5.7,46.8-3.7,53.4
		C783.6,194.4,813.9,230.1,839.7,223.5"/>
	<path class="st7" d="M839.7,223.5c25.7-6.6,43.8-54.6,25.8-87.7c-18.2-33.5-69-43.8-87.7-25.8c-15.5,15-5.7,46.8-3.7,53.4
		C783.6,194.4,813.9,230.1,839.7,223.5z"/>
</g>
</svg>
