<?xml version="1.0" encoding="utf-8"?>
<!-- Generator: Adobe Illustrator 24.0.2, SVG Export Plug-In . SVG Version: 6.00 Build 0)  -->
<svg version="1.1" id="Layer_1" xmlns="http://www.w3.org/2000/svg" xmlns:xlink="http://www.w3.org/1999/xlink" x="0px" y="0px"
	 viewBox="0 0 1080 1080" style="enable-background:new 0 0 1080 1080;" xml:space="preserve">
<style type="text/css">
	.st0{fill:#F3D90D;}
	.st1{fill:#FAF287;}
	.st2{fill:#FEDD00;}
	.st3{fill:none;stroke:#FFFFFF;stroke-width:7.1782;stroke-miterlimit:10;}
	.st4{fill:#010101;}
	.st5{fill:#F3D90D;stroke:#231F20;stroke-width:12.7617;stroke-miterlimit:10;}
	.st6{fill:#CBCB30;}
	.st7{fill:#FFFFFF;stroke:#231F20;stroke-width:12.7617;stroke-miterlimit:10;}
	.st8{fill:none;stroke:#231F20;stroke-width:7.9761;stroke-miterlimit:10;}
	.st9{fill:none;stroke:#231F20;stroke-width:9.5713;stroke-miterlimit:10;}
	.st10{fill:#231F20;stroke:#231F20;stroke-width:6.3809;stroke-miterlimit:10;}
</style>
<g>
	<path class="st0" d="M951.6,676.6c-6.1,7.3-15.4,9.5-24.6,9.5c-10.6,0-21-2.9-25.9-4.3l-0.7-0.2l-30.7-10.8
		c-9.4,24.7-21.6,48.2-36.5,70.1l16.4,38.8l-41-6.8c-19.4,22.4-41.6,42.2-66,58.9l7,46.1l-50-21.1c-43.2,21.1-89.5,32.7-137.8,34.4
		l-72.6,49.6l-38.5-63.8c-46.7-14-90.5-38.3-127.2-70.6l0.2-0.2l-42.7,4.2l6.2-41c-32-38-55.7-83.2-68.6-130.8l-44.6-11.2l35.6-34.4
		c-1.9-14.5-2.8-29.4-2.8-44.1c0-20.2,1.8-40.4,5.2-60c-11.2-11.6-23.9-25.2-36.2-39.4c-65.5-75.2-65.4-101.7-59.6-115.2
		c3.1-7.3,8.9-12.1,16.8-14c18.6-4.4,49.4,8.8,96.7,41.7c7.9,5.5,15.6,11.1,22.6,16.3c7.7-13.4,16.4-26.4,25.9-38.6l-38.6-81.9
		l103,18.1c21.5-16.3,44.5-29.9,68.6-40.6l-2.2-6.4c-1.8-5.3-3.6-10.6-5.5-15.8c-5.1-14.5-10.2-29-15.3-43.6l-3.9-11
		c-3.3-9.4-2.2-18.3,3-24.5c3.1-3.6,10.2-9.3,23.6-7c14.9,2.6,30,5.3,44.7,8c23.6,4.2,48.1,8.6,72.1,12.7c5.7,1,12.1,0.7,17.4-0.6
		c28.9-7.3,58.3-15,86.7-22.5c11.1-2.9,22.2-5.9,33.4-8.8c13.9-3.7,21.8,1.6,25.2,5c3.4,3.4,8.5,11.1,4.9,24.7
		c-5.2,19.5-10.7,38.5-16.5,58.7c-2.4,8.1-4.7,16.4-7.1,24.7c14.6,5.5,28.7,12.1,42.4,19.6l36.3-22.8l-0.1,45.7
		c19,13.7,36.5,29.4,52.3,46.8l69.4-10.8l-30,63.2c15.2,24.8,27.1,51.4,35.5,79l35.2,14.9L885.7,483c4.2,21.6,6.4,43.7,6.4,65.9
		c0,4.6-0.1,9.1-0.3,13.7c1.5,1.3,3,2.6,4.4,3.9c18.2,16.8,42.7,43.3,56.4,74.7C954.2,644.6,962.5,663.4,951.6,676.6z"/>
	<path class="st1" d="M678.7,204.1c-2.4,8.1-4.7,16.4-7.1,24.7c6.8,2.6,13.4,5.3,20,8.4l-5.2,9.2l-28-10.1l-59.2-16.9l-49.5-3
		l-39.7,1.5l-61.2,7.8L414,244l-12.3,6.5l-11-5.4c6.7-3.5,13.4-6.8,20.3-9.8l-2.2-6.4c-1.8-5.3-3.6-10.6-5.5-15.9
		c-5.1-14.5-10.2-29-15.3-43.6l-3.9-11c-3.3-9.4-2.2-18.3,3-24.5c3-3.6,10.2-9.3,23.6-7c14.9,2.6,30,5.3,44.7,8
		c23.7,4.2,48.1,8.6,72.1,12.7c5.7,1,12.1,0.7,17.4-0.6c28.9-7.3,58.3-15,86.7-22.5c11.1-2.9,22.2-5.9,33.4-8.8
		c13.9-3.7,21.8,1.6,25.2,5c3.4,3.4,8.5,11.1,4.9,24.7C690,165,684.5,184,678.7,204.1z"/>
	<g>
		<g>
			<ellipse class="st2" cx="549" cy="549.1" rx="321.5" ry="321.3"/>
		</g>
	</g>
	<g>
		<g>
			<g>
				<g>
					<path class="st3" d="M247.5,516.1"/>
				</g>
			</g>
		</g>
		<g>
			<g>
				<path d="M951.6,676.6c-6.1,7.3-15.4,9.5-24.6,9.5c-10.6,0-21-2.9-25.9-4.3l-0.7-0.2l-30.7-10.8l-20.2-7.1l-0.1,0L813,650.9
					l7.6-21.7l36.3,12.7l50.8,17.8c21.4,6,26.2,2.2,26.3,2.2c0.8-1.2-0.1-6.7-2.1-10.9l-0.2-0.5c-12-27.8-34.4-51.9-51-67.2
					c-3.4-3.2-7.2-6.2-11.1-9.1c-13.5-10-27.6-17.4-27.8-17.5l10.6-20.4c0.6,0.3,8.3,4.3,18.1,10.7c6.7,4.3,14.3,9.6,21.3,15.5
					c1.5,1.3,3,2.6,4.4,3.9c18.2,16.8,42.7,43.3,56.4,74.7C954.2,644.6,962.5,663.4,951.6,676.6z"/>
			</g>
		</g>
		<g>
			<g>
				<g>
					<path class="st3" d="M148.5,349.5"/>
				</g>
			</g>
		</g>
		<g>
			<g>
				<path d="M136,342.8c-1.3,3.2-5,22.4,56,92.5c14.9,17.1,30.2,33.3,42.8,46.1c15.8,16.1,27.2,26.8,27.4,27L247.4,524
					c-0.2-0.1-6.5-6.2-16.4-16c-0.2-0.2-0.4-0.4-0.7-0.7c-5.3-5.2-11.5-11.5-18.2-18.5c-11.2-11.6-23.9-25.2-36.2-39.4
					c-65.5-75.2-65.4-101.7-59.6-115.2c3.1-7.3,8.9-12.1,16.8-14c18.6-4.4,49.4,8.8,96.7,41.7c7.9,5.5,15.6,11.1,22.6,16.3
					c6.1,4.6,11.8,8.9,16.8,12.8c0.2,0.1,0.3,0.2,0.5,0.4c12.8,10,21.2,17.1,21.8,17.6l-13.9,16.5c-0.1-0.1-7.3-6.2-18.5-15
					c-11-8.7-25.8-20-41.7-31c-56.9-39.5-75.1-39.4-79.3-38.3C136.6,341.5,136.4,341.9,136,342.8z"/>
			</g>
		</g>
		<g>
			<g>
				<path d="M873.2,661.2c-1.1,3.2-2.3,6.4-3.5,9.6c-9.4,24.7-21.6,48.2-36.5,70.1c-0.3,0.5-0.6,0.9-0.9,1.4l-17.6-12.1l-0.1-0.1
					c3-4.3,5.8-8.7,8.5-13.2c10.4-16.9,19.2-34.7,26.3-53.2c1.2-3.2,2.4-6.3,3.5-9.5l0.1,0L873.2,661.2z"/>
			</g>
		</g>
		<g>
			<g>
				<path d="M809.9,771.5c-0.4,0.5-0.8,0.9-1.2,1.4c-12.4,14.4-26.1,27.8-40.7,39.9c-8.1,6.7-16.6,13.1-25.3,19.1
					c-0.8,0.5-1.6,1.1-2.4,1.6l-11.9-17.7l-0.1-0.2c3.6-2.4,7.2-5,10.8-7.6c6.9-5,13.6-10.3,20-15.9c8.5-7.3,16.7-15.1,24.4-23.4
					c3.5-3.7,6.8-7.4,10.1-11.3l0.1,0.1L809.9,771.5z"/>
			</g>
		</g>
		<g>
			<g>
				<path d="M699.7,856.8c0,0-0.1,0-0.1,0.1c-43.2,21.1-89.5,32.7-137.8,34.4c-1.4,0.1-2.7,0.1-4.1,0.1l-0.5-21.1l0-0.4
					c13.9-0.3,27.7-1.5,41.2-3.6c25.5-3.9,50.3-10.8,74.1-20.8c6-2.5,11.9-5.2,17.7-8l0.1,0.2L699.7,856.8z"/>
			</g>
		</g>
		<g>
			<g>
				<path d="M464.9,858.7L464.9,858.7l-0.1,0.5l-4.3,15.9l-1.2,4.4c-2.8-0.8-5.7-1.6-8.5-2.4c-8.1-2.4-16-5.1-23.9-8.2
					c-37.7-14.5-73-35.7-103.4-62.4l0.2-0.2l13.6-15.5l0.3-0.3l0.2-0.2c0.1,0.1,0.1,0.1,0.2,0.2c5.1,4.5,10.3,8.8,15.7,12.9
					c24.3,18.7,51.3,33.9,79.9,45C443.8,852.4,454.2,855.8,464.9,858.7C464.9,858.7,464.9,858.7,464.9,858.7z"/>
			</g>
		</g>
		<g>
			<g>
				<path d="M303.8,755.7l-0.6,0.5l-15.9,13.4c0,0,0-0.1-0.1-0.1c-32-38-55.7-83.2-68.6-130.8c-0.1-0.5-0.2-0.9-0.4-1.4l20-5.3
					l0.8-0.2c1.2,4.4,2.4,8.7,3.8,13c10.7,34.3,27.4,66.9,48.9,95.8C295.7,745.7,299.7,750.8,303.8,755.7z"/>
			</g>
		</g>
		<g>
			<g>
				<path d="M229.3,573.9c0.4,5.5,1,10.9,1.7,16.3l-0.8,0.1l-20.6,2.7v0c-1.9-14.5-2.8-29.4-2.8-44.1c0-20.2,1.8-40.4,5.2-60
					c0.3-1.9,0.7-3.7,1-5.5l20.4,4l0.7,0.1c-1.3,6.8-2.4,13.7-3.3,20.6c-1.7,13.5-2.6,27.2-2.6,40.9
					C228.4,557.2,228.7,565.6,229.3,573.9z"/>
			</g>
		</g>
		<g>
			<g>
				<path d="M892,548.9c0,4.6-0.1,9.1-0.3,13.7c-0.2,3.9-0.4,7.8-0.7,11.7l-21.4-1.6h0c0.3-3.9,0.5-7.9,0.7-11.8c0.1-2,0.1-4,0.2-6
					c0-1.9,0.1-3.8,0.1-5.8v-0.2c0-0.6,0-1.2,0-1.8c0-7.6-0.3-15.2-0.9-22.7c-0.7-9.4-1.8-18.7-3.3-28c-0.7-4.1-1.4-8.2-2.3-12.3
					l21.1-4.3c0.2,1,0.4,2.1,0.6,3.2C889.9,504.5,892,526.7,892,548.9z"/>
			</g>
		</g>
		<g>
			<g>
				<path d="M877.5,449.8l-20.6,6.2c-1.8-6-3.8-11.9-5.9-17.8c-5.6-15.2-12.3-30-20.2-44.2c-2.5-4.6-5.2-9.1-8-13.6l18.3-11.3
					c0.3,0.4,0.6,0.9,0.8,1.4c15.2,24.8,27.1,51.4,35.5,79C877.4,449.6,877.4,449.7,877.5,449.8z"/>
			</g>
		</g>
		<g>
			<g>
				<path d="M803.6,319.1l-16,14.4c-3.6-3.9-7.2-7.8-11-11.5c-9.5-9.5-19.6-18.5-30.2-26.7c-3.5-2.7-7-5.3-10.6-7.9
					c-0.1-0.1-0.1-0.1-0.2-0.2l0.2-0.3l12.3-17.2c0.7,0.5,1.4,1,2.1,1.5c19,13.7,36.5,29.4,52.3,46.8
					C802.9,318.4,803.2,318.7,803.6,319.1z"/>
			</g>
		</g>
		<g>
			<g>
				<path d="M715.4,249.1L705,267.9c-4-2.2-8-4.3-12-6.3c-23.8-11.9-49.1-20.8-75.2-26.5c-5.2-1.1-10.5-2.2-15.8-3
					c-1.3-0.2-2.6-0.4-4-0.6c-1.3-0.2-2.7-0.4-4-0.6c-2.7-0.4-5.4-0.7-8-1c-4-0.5-8.1-0.9-12.2-1.2c-4.1-0.3-8.2-0.5-12.2-0.7h-0.1
					c-1.2,0-2.3-0.1-3.5-0.1c-0.5,0-1.1,0-1.6,0c-0.9,0-1.9,0-2.8-0.1c-1.4,0-2.7,0-4.1,0c-2.2,0-4.5,0-6.7,0.1
					c-61.4,1.2-119.8,19.5-170.5,53.2c-6.5,4.3-12.8,8.9-19,13.6l-0.2-0.3l-13-16.7c0.8-0.6,1.6-1.2,2.4-1.8
					c15.4-11.7,31.5-22,48.3-30.8c6.7-3.5,13.4-6.8,20.3-9.8c43.1-19.1,89.9-29,138.4-29c41.9,0,83.4,7.7,122.2,22.5
					c6.8,2.6,13.4,5.3,20,8.4c7.6,3.5,15.1,7.2,22.4,11.3C714.5,248.6,715,248.9,715.4,249.1z"/>
			</g>
		</g>
		<g>
			<g>
				<path d="M298.2,348.9c-3.3,4.2-6.6,8.5-9.7,12.8c-6.9,9.6-13.2,19.5-19,29.7c-1.5,2.6-2.9,5.3-4.3,7.9l-0.5-0.3l-18.5-9.7
					c2-3.7,4-7.4,6.1-11.1c7.7-13.4,16.4-26.4,25.9-38.6c1.1-1.4,2.2-2.8,3.3-4.2l16.5,13.1L298.2,348.9z"/>
			</g>
		</g>
		<g>
			<g>
				<polygon points="750.3,225.5 750.2,271.2 750.1,295.3 746.4,295.3 746.2,295.3 735.8,295.2 735.8,287.5 735.8,286.9 
					735.9,251.6 707.5,269.5 699,274.8 691.4,262.6 692.9,261.7 693,261.6 714,248.4 				"/>
			</g>
		</g>
		<g>
			<g>
				<path class="st4" d="M690.3,120.7c-3.4-3.4-11.3-8.7-25.2-5c-11.1,2.9-22.2,5.9-33.4,8.8c-28.4,7.5-57.7,15.3-86.7,22.5
					c-5.3,1.3-11.7,1.6-17.4,0.6c-24.1-4-48.5-8.4-72.1-12.7c-14.6-2.6-29.8-5.3-44.7-8c-13.4-2.3-20.6,3.4-23.6,7
					c-5.2,6.2-6.3,15.1-3,24.5l3.9,11c5.1,14.5,10.2,29.1,15.3,43.6c1.8,5.3,3.6,10.5,5.5,15.9l2.2,6.4l3,8.7l0.8,2.3l10.1-3.4
					c78.9-26.1,155.2-28.3,233.4-6.7l10.3,2.8l2.9-10.3c0,0,0,0,0,0c2.4-8.3,4.7-16.5,7.1-24.7c5.8-20.1,11.3-39.1,16.5-58.7
					C698.9,131.9,693.7,124.1,690.3,120.7z M674.4,139.8c-5.2,19.3-10.7,38.3-16.4,58.3c-1.4,4.9-2.8,9.7-4.2,14.6
					c-75.5-19-149.5-16.8-225.5,6.5c-1.5-4.5-3.1-8.9-4.6-13.4c-5.1-14.5-10.2-29.1-15.3-43.6l-3.9-11c-0.6-1.6-0.7-2.7-0.7-3.2
					c0.6-0.1,1.6-0.2,3.3,0.1c14.9,2.6,30,5.3,44.6,7.9c23.7,4.3,48.2,8.7,72.4,12.7c8.7,1.5,18,1.1,26.2-0.9
					c29.1-7.3,58.5-15.1,86.9-22.6c11.1-2.9,22.2-5.9,33.3-8.8c2.3-0.6,3.6-0.6,4.3-0.5C675,136.7,674.9,137.9,674.4,139.8z"/>
			</g>
		</g>
		<g>
			<g>
				<polygon points="912.6,464.4 885.7,483 866.2,496.4 866.2,496.4 856.9,502.8 848.8,491 863.3,481 882.9,467.4 856.9,456.4 
					842.9,450.4 848.5,437.2 850.8,438.2 850.9,438.2 877.4,449.4 				"/>
			</g>
		</g>
		<g>
			<g>
				<polygon points="849.6,779.7 808.6,772.9 783.6,768.8 783.4,768.7 782.9,768.7 785.3,754.5 794.9,756.1 826.3,761.3 
					813.7,731.6 809.3,721.2 822.5,715.5 823.1,716.9 823.1,717.1 833.2,740.9 				"/>
			</g>
		</g>
		<g>
			<g>
				<polygon points="262.2,636.2 259.1,648.8 242.9,644.7 242,644.5 218.7,638.6 174.1,627.4 209.7,593 228.6,574.6 229.3,573.9 
					230.7,572.6 239.6,581.9 230.3,591 199.8,620.5 237.9,630.1 				"/>
			</g>
		</g>
		<g>
			<g>
				<polygon points="359.6,802.8 353.6,803.3 352.6,803.4 323.7,806.3 287.6,809.8 281.1,810.5 287.3,769.5 291.5,741.4 
					291.7,740.5 291.9,740.5 305.9,742.7 303.7,756.7 299.1,787.1 298,794.4 337,790.5 337.6,790.5 337.9,790.5 358.2,788.5 				"/>
			</g>
		</g>
		<g>
			<g>
				<polygon points="604.2,862.3 598.5,866.3 597.8,866.7 561.9,891.3 489.3,940.9 450.8,877.1 434,849.2 433.5,848.3 429.4,841.6 
					447.8,830.5 464.9,858.7 464.9,858.8 465.3,859.4 495.9,910.2 554.3,870.3 592,844.6 				"/>
			</g>
		</g>
		<g>
			<g>
				<polygon points="749.6,877.9 699.6,856.9 699.4,856.8 699.4,856.8 672.9,845.6 672.6,845.5 668.5,843.8 674.1,830.6 
					690.7,837.6 719.5,849.7 731.6,854.8 730.2,845.4 725.9,817.4 723.8,803.5 738,801.4 739,808 739.1,808.3 742.6,831.8 
					743.8,839.6 				"/>
			</g>
		</g>
		<g>
			<g>
				<polygon points="372.5,281.1 369.3,299.8 350.4,296.5 272.3,282.8 301.3,344.4 307.9,358.4 290.8,366.5 288.5,361.8 
					288.3,361.2 278.1,339.7 239.5,257.8 342.5,275.9 371.8,281 372.2,281.1 				"/>
			</g>
		</g>
		<g>
			<g>
				<polygon points="871.9,307.2 841.9,370.4 830.7,393.9 830.7,394 823.2,409.6 810.3,403.5 821.9,379.1 847.3,325.6 788.5,334.7 
					764.4,338.4 762.2,324.3 776.5,322 776.6,322 802.5,318 				"/>
			</g>
		</g>
	</g>
	<g>
		<path class="st5" d="M373,444.2c46.4,16.9,97.7,28.4,150.2,32.3c6.2,0.5,12.4,0.8,18.7,1.1c5-0.3,10.1-0.6,15.1-1.1
			c48.9-4.8,97.2-20.9,140.4-51.5c5.2-3.7,11.5-8.4,18.5-14.3c-15.8-40.1-51.3-68.1-92.7-68.1c-39.5,0-73.7,25.5-90.4,62.8
			c-17.1-16.8-41.5-27.3-68.5-27.3C419.9,378.1,382.8,406.3,373,444.2z"/>
		<path class="st6" d="M520.3,476.7c0.1,0.5,0.2,0.9,0.2,1.4c6.4,0,12.8-0.1,19.2-0.4C533.2,477.4,526.7,477.1,520.3,476.7z"/>
		<path class="st6" d="M539.7,477.6c5.1,0.2,10.3,0.3,15.4,0.4c0.1-0.5,0.2-0.9,0.3-1.4C550.2,477.1,544.9,477.4,539.7,477.6z"/>
		<path class="st7" d="M373,465.2c0,43.6,37.9,79,84.6,79c26.2,0,49.6-11.1,65.1-28.5c19.6,29.3,54,48.8,93.2,48.8
			c61,0,110.5-47.2,110.5-105.5c0-15.3-3.4-29.8-9.5-42.9c-7.7,5.4-14.5,9.8-20.2,13.2c-51.8,31-110.3,45.8-169.2,48.4
			c-53.2-2.2-105.4-13.4-152.3-30.7C373.8,452.8,373,458.9,373,465.2z"/>
		<path class="st8" d="M344.3,411.3c0.2,0.8,0.5,1.7,0.8,2.6c1.8,6,5.3,14.5,12.1,22.2c17.4,19.9,41.2,17.6,44.7,17.2"/>
		<path class="st9" d="M522.5,478c-1.2,0-2.5,0-3.7,0"/>
		<path class="st8" d="M697.2,429.4c6-3.3,16.3-10.1,24.8-22.5c12.1-17.7,12.7-35.7,12.6-42.6"/>
		<path class="st10" d="M441.9,478c-2.7,9.1,10,24.5,24.5,24.5c14.6,0,27.2-15.4,24.5-24.5c-2.5-8.2-17.1-10.3-24-10.4
			C459.2,467.5,444.3,469.7,441.9,478z"/>
		<path class="st10" d="M577.5,477.5C575,487.3,587.7,502,602,502c14.5,0,27.1-15,24.5-24.5c-2.2-7.9-14.5-10.4-17.1-10.9
			C597.4,464.1,580,467.7,577.5,477.5z"/>
	</g>
	<path d="M523.6,607.4c-14.9,0-28.6-4.3-41-12.7c-1.5-1-3-2.2-4.3-3.4c-3.1-2.9-4.2-6.3-1.3-9.7c3.2-3.7,6.4-2.7,10.1,0.1
		c19.6,15.2,40.9,16.6,63.3,6.9c2.8-1.2,5.3-3.3,7.8-5.2c3.9-3,7.7-3.1,10.1,0.2c2.8,3.9,1,6.8-2.2,9.5
		C555.5,602.2,540.1,607.4,523.6,607.4z"/>
	<ellipse class="st1" cx="531" cy="728.3" rx="151.1" ry="76.9"/>
</g>
</svg>
