<?xml version="1.0" encoding="utf-8"?>
<!-- Generator: Adobe Illustrator 24.0.2, SVG Export Plug-In . SVG Version: 6.00 Build 0)  -->
<svg version="1.1" id="Layer_1" xmlns="http://www.w3.org/2000/svg" xmlns:xlink="http://www.w3.org/1999/xlink" x="0px" y="0px"
	 viewBox="0 0 1920 1080" style="enable-background:new 0 0 1920 1080;" xml:space="preserve">
<style type="text/css">
	.st0{fill:#FFFFFF;}
</style>
<g>
	<path d="M1266.3,662.4c4.4,4.9,8.3,9.4,12.5,13.7c6.4,6.7,13.1,13.3,19.6,20c1.8,1.9,3.4,2.8,6.4,2c15.1-3.7,28.5,0.4,39.7,10.6
		c11.3,10.3,22.1,21.3,32.9,32.1c30,29.9,59.3,60.5,90,89.6c29.9,28.3,30.4,68.3,8.8,99.1c-16.6,23.7-38.7,38.7-68.2,40.7
		c-19,1.3-36.2-4.5-49.7-17.8c-38.3-37.4-76-75.3-113.9-113c-5.3-5.3-10.9-10.4-15.5-16.3c-8.1-10.4-12.5-22.2-10-35.8
		c0.3-1.6-0.2-3.9-1.2-5c-10.8-11.1-21.8-22-32.5-32.7c-12,7.9-23.4,15.9-35.3,23.1c-39.4,23.8-82,38.9-127.6,45.3
		c-27,3.8-54,5.2-81.2,2.7c-72-6.6-136.8-31.6-193.4-76.9c-53.6-42.7-90.9-96.9-113.6-161.4c-15-42.4-21.1-86.2-18.7-130.9
		c4-73.2,28.2-139.1,73.1-197.2c47-60.9,107.9-101.3,181.5-122.9c37-10.9,75-15.2,113.4-13.3c81.1,4,153.7,30.9,216.1,83.1
		c58.5,48.8,96.8,110.7,114.6,184.9c8.4,34.8,11.6,70.1,9.4,105.9c-3.9,62.1-23.4,118.8-57.2,170.9
		C1266.2,663.1,1266.2,663.3,1266.3,662.4z M1294.8,465c-0.3-21.4-2.7-47-9.2-72.1c-19.8-75.5-61.1-136.6-123.9-182.9
		c-45.7-33.8-97.2-53.1-153.6-60.2c-34.5-4.3-68.8-3.6-102.8,3.4c-74.7,15.4-137.2,51.9-186.3,110.6
		c-44.9,53.7-69.2,115.9-73.9,185.7c-2,30.2,0.4,60.2,7.3,89.7c17.5,74.9,56,136.7,116.6,184.2c49.5,38.8,106.1,61.5,168.6,68.4
		c34.3,3.8,68.5,1.2,102.1-6.8c69.2-16.5,128.9-50,175.5-104.1C1267.4,620.4,1294.2,549.6,1294.8,465z M1463,883.2
		c-0.8-10.9-4.5-20.1-11.8-27.8c-4.8-5-10-9.8-14.9-14.8c-36.3-36.3-72.5-72.5-108.8-108.8c-8.1-8.1-14.5-8.7-22.1-1.3
		c-18,17.7-35.7,35.9-53.5,53.9c-5,5-4.9,10.8-2.3,16.6c1.5,3.2,4,6.1,6.5,8.7c9.5,9.6,19.2,19,28.7,28.5c29.7,29.7,59.4,59.3,89,89
		c9.9,9.9,21.7,15.6,36,13.1c23-3.9,38.2-18.4,48.1-38.7C1460.6,896,1461.4,889.4,1463,883.2z M1234.8,757.4
		c15.2-14,29.4-27,43.7-40.2c-10.6-10.3-20.3-19.7-29.9-29c-12.9,13.8-26.3,28-39.8,42.4C1217.9,740.1,1227,749.4,1234.8,757.4z"/>
	<path d="M963.7,770.1c-66.2-0.8-130.9-22.6-186.7-68.8c-52.8-43.7-86.3-99.4-101.8-166.1c-8.1-34.7-8.9-69.7-4.4-105.1
		c7.3-57.1,29.3-107.9,66-151.8c42.5-50.8,96.1-84.7,160.9-100.4c35.4-8.6,71.1-10.1,107-5.8c59.4,7.1,112.4,29.6,158.6,67.6
		c53.2,43.8,87.5,99.4,102.2,166.8c5.9,27.3,7.6,54.9,5.8,82.8c-3.9,59.5-23.9,113.2-59.7,160.6c-40,52.9-92,89.3-156,107.9
		C1027.7,766.1,998.9,770.1,963.7,770.1z M976.5,741.3c14.2,0.5,34-2.1,53.4-6.5c61.6-14.1,113-45.2,152.8-94.3
		c31.9-39.4,52.1-84.1,58.8-134.7c4.2-31.7,3.1-63.1-4-94.2c-12.4-54.7-39.4-101.2-80.6-139.3c-49.6-45.9-108.7-69.1-175.7-73
		c-22-1.3-44,0.4-65.5,5.1c-53.6,11.7-101.4,35-140.3,74.4c-46.9,47.5-73.1,104.9-78,171.4c-2.5,33.2,0.6,66.1,10.8,98.1
		c16.3,50.9,43.5,95,84.6,129.3C844,720.2,903.6,741.2,976.5,741.3z"/>
	<path d="M794.5,410.7c8.2-16.7,16.2-33,24.5-49.8c-4.9-1.5-11-3.1-17-5.1c-5.2-1.7-10.5-3.3-12.3-9.7c-2.3-8.2,2.7-16.1,11.1-17.2
		c9.1-1.2,17.4,1.8,25.7,4.7c4.1,1.5,8,3.2,12.5,5c3-2.7,6.3-5.5,9.2-8.7c1.1-1.2,1.7-3.6,1.5-5.3c-1.8-11.8-4-23.5-5.8-35.3
		c-1.4-8.7,3.3-14.6,12.1-15.4c12.7-1.1,24.2,3.3,35.5,8.2c4.9,2.1,9.3,5.2,14.1,7.4c1.6,0.7,3.9,1,5.4,0.3c0.8-0.4,1-3.2,0.6-4.7
		c-2.2-8.9-4.4-17.7-2.6-27c3.3-16.7,21.5-28.4,38.1-24.6c14.9,3.4,26.9,11.8,38.3,21.4c6.4,5.3,12.5,10.9,19.5,16.9
		c2.9-5.8,5.6-11,8.2-16.3c1.8-3.6,3.3-7.3,5.4-10.7c4.1-6.6,11.6-8.6,18.7-5.2c6.8,3.3,9.6,9.5,6.6,17.1c-3.1,7.8-7,15.3-10.5,23
		c13,3.3,26.1,6.6,39.6,10c3.4-5.7,6.8-12.3,10.9-18.6c4.4-6.6,10.5-8.6,17.3-6.3c7.2,2.4,11,9,8.2,16.2c-2.9,7.5-7,14.6-10.8,22.1
		c11.5,8.3,23.8,17.1,36,25.9c5.1-3.6,10.4-7.8,16.1-11.5c4.5-3,9.6-4,14.7-1.8c8.7,3.8,10.7,14.5,3.6,21.5c-5,5-11.1,9-17.2,13.8
		c1,1.6,2.1,3.4,3.4,5c10.7,14.1,19.5,29.3,25.5,46c1.3,3.6,3.3,5.1,7.1,6.2c14,4.2,22.8,14.5,28.9,27.2
		c10.3,21.8,11.8,44.8,8.1,68.2c-3.3,21.1-10.3,41-24.5,57.4c-5.5,6.3-12.5,11.3-18.8,16.9c-1.5,1.3-3.4,2.3-4.4,3.9
		c-6.2,9.5-11.6,19.4-18.3,28.5c-6.6,8.9-14.4,17-22.1,25.9c1.4,2.2,3.4,4.8,4.9,7.7c1.5,3.1,3,6.3,3.8,9.7
		c1.4,6.3-0.9,11.2-6.2,14.4c-5.9,3.5-11.8,3.6-16.7-0.7c-3.8-3.4-6.9-7.6-10.4-11.5c-7.8,3.9-15.6,8.2-23.7,11.8
		c-8,3.5-16.4,6.4-24.6,9.5c1.1,4.2,2.4,8.2,3.2,12.4c1.5,7.9-2.9,14.6-10.7,16.7c-7.2,1.9-13.2-1.2-16-8.9
		c-1.3-3.7-2.2-7.6-2.8-11.6c-0.4-2.6-1.6-3.8-3.9-3c-3.7,1.3-7.8,2.3-10.7,4.7c-15.5,13-32.2,23.7-52.3,27.6
		c-5.9,1.1-12.4,1.2-18.2-0.1c-10.3-2.3-16.7-14.2-14.7-25.2c0.6-3.2,1.3-6.5,2.1-10c-5.7-1.7-11.2-3.3-16.6-5.1
		c-15.4-5-29.8-12.2-43.2-21.2c-3.2-2.1-4.6-1.5-7,0.9c-4.9,4.7-9.9,9.3-15.4,13.4c-5.6,4.3-11,3.9-16-0.2
		c-4.6-3.7-6.4-10.1-3.2-15.8c3.8-6.8,8.7-12.9,13.4-19.8c-3.9-4.2-8.4-8.9-12.8-13.9c-4-4.6-8-9.3-11.6-14.3
		c-1.9-2.7-3.1-2.3-5.6-0.8c-4.6,2.9-9.4,5.7-14.4,7.6c-5.7,2.1-11.4-0.4-14.7-5.4c-3.2-4.8-3.4-10.8,0.7-15.2
		c3.7-4,8.4-7,12.4-10.7c1.1-1,2.4-3.2,2-4.3c-4.3-11.3-8.8-22.5-13.6-34.4c-2.9,2.5-5.5,5-8.4,7.1c-5.5,4.1-10.8,8.4-16.7,11.7
		c-14.2,7.9-28.1,3.7-35.9-10.6c-6.6-12.1-7.8-25.2-6.6-38.7c1.1-11.6,4.5-22.4,11.3-32c0.6-0.9,0.4-3.2-0.3-4.2
		c-14.1-18.4-17.6-39-12.4-61.3c0.8-3.3,2.2-6.6,3.9-9.6c6.5-11.9,16.7-16.2,29.8-12.6c13.1,3.6,23.8,11.6,34.7,19.2
		C794.1,410.4,794.6,410.8,794.5,410.7z M757.8,536.6c3.4-2.7,7.1-5.1,10.1-8.1c7.7-7.6,15.2-15.4,22.5-23.4
		c4.4-4.8,9.6-7.7,15.9-5.9c6.1,1.7,7.6,7.3,8.7,12.9c9.7,48.9,35.1,87.8,75.7,116.6c20.9,14.8,44.5,23.5,69.9,27.2
		c1,0.1,2,0.3,2.9,0.5c9.1,2.4,11.7,7.9,8,16.6c-2.2,5-4.4,10.1-6.8,15.4c1.4,0.2,1.9,0.4,2.3,0.3c2.4-0.7,4.8-1.3,7.2-2.1
		c13.8-4.6,24.5-13.8,35-23.4c4-3.7,8.5-5.5,13.8-6.1c5.4-0.6,10.9-1.2,16.2-2.3c51-11.4,90.1-38.7,113.8-86.3c1.9-3.9,5.8-7,9.2-10
		c4.1-3.6,9.3-6,13-10c22.1-24.2,28.8-52.9,22.2-84.6c-3.4-16.4-12.5-28.4-29.8-32.5c-6.6-1.5-9.5-6.8-11.2-12.9
		c-11-39.8-35.5-69.2-69.7-91.2c-6.6,9.6-12.7,10.5-21,7.3c-2.4-0.9-5.7-3.3-6.1-5.4c-0.8-4.8,0-9.8,0.1-15.2
		c-1.1-0.4-3.1-1.3-5.2-1.8c-10.3-2.5-20.6-4.9-31-7.1c-1.7-0.3-4.1,0.4-5.4,1.5c-5.4,4.4-12.7,4.8-18.3,0.3
		c-2.3-1.9-4.3-4.2-6.4-6.3c-9.8-9.5-19.3-19.3-29.6-28.2c-5.8-5-12.7-9.1-19.8-12.2c-6.4-2.9-11.1,1.7-8.9,8.4
		c2.3,7.2,5.6,14.1,8.3,21.2c1.5,3.8,3.4,7.8,3.7,11.8c0.9,11.3-9.3,17.8-19.5,12.8c-1.9-0.9-3.8-2.1-5.8-3.2
		c-0.7,0.8-1.4,1.5-2,2.3c-6.6,8.9-13.3,10-22.6,3.7c-1.9-1.3-3.7-2.8-5.7-4c-6.1-3.7-12.3-7.4-19.5-11.6c0.3,2.9,0.3,4.2,0.5,5.5
		c1.4,7,2.8,14,4.2,21c1.6,7.7-0.5,13.9-6.4,19.3c-6.6,6.1-13.1,12.4-18.7,19.4c-17.1,21-29.4,44.5-34.6,71.4
		c-1.2,6-4.1,10.9-10.6,12.6c-6.1,1.5-10.5-1.3-14.6-5.4c-5-4.9-9.9-10-15.4-14.2c-7.3-5.5-15.3-10.3-23.5-15.8
		c-1.1,3.3-1.8,5.4-2.3,7.4c-4.8,19.4,4.6,34.8,23.8,39c2.4,0.5,5,0.5,7.4,0.9c5.9,1,10.1,5.4,10.3,10.5c0.3,4.7-3.2,9-8.7,10.8
		c-1.3,0.4-2.6,0.8-3.9,0.9C754.3,487.6,747.4,516.8,757.8,536.6z"/>
	<path d="M845.5,488.3c4.5-0.7,7.9-1.5,11.3-1.8c9.9-0.9,19.8-2,29.8-2.4c6.4-0.3,9.6,2.6,10.2,7.9c0.5,4.4-2.6,7.6-8.7,9
		c-1.1,0.3-2.3,0.6-3.4,0.8c-9.3,1.4-18.7,2.7-28,4.2c-1.6,0.2-3.1,0.9-5.4,1.5c3.7,5.6,7,10.7,10.6,15.7c2,2.8,4.8,3.5,8.4,2.1
		c10.3-4,20.8-7.8,31.3-11.5c6.3-2.2,10.3-1.1,13.3,3.1c4.6,6.5,3.3,14.5-3.4,18.7c-4.3,2.7-9,5.1-13.8,6.9
		c-8.5,3.2-17.2,5.8-25.9,8.7c-8.2,2.7-15.6,0.8-21.8-4.9c-17-15.6-26.1-35.2-29-58c-1.5-12.1-0.8-23.9,3.3-35.4
		c4-11.3,12.5-17.7,21.5-16.7c5,0.6,9.9,1.2,14.8,2c16.3,2.8,31.8,8,46.6,15.5c7.2,3.7,10.1,10.8,7.2,17.3c-2.9,6.5-9.3,8.8-17.4,6
		c-11.9-4.1-23.8-8.2-35.7-12.3c-1.1-0.4-2.3-0.5-3.4-0.7c-9.7-1.8-10.8-1.4-12.3,8.6C844.9,477.5,845.5,482.6,845.5,488.3z"/>
	<path d="M1063.6,540.4c-20.4-0.3-36.3-10.1-49.2-25.2c-5.6-6.6-10-14.5-14.2-22.1c-4.4-8-3.8-15.2,0.7-18.8
		c4.7-3.8,12.4-2.9,19.3,2.2c6.4,4.8,12.8,9.5,21.1,10.5c14.4,1.9,25.6-3.7,34.5-14.6c3.4-4.1,6.3-8.7,10.2-12.2
		c8.4-7.6,19.6-4.9,24.1,5.5c9.9,23.3,0.4,66.6-37.4,74C1069.9,540.3,1066.8,540.2,1063.6,540.4z M1087.1,494
		c-11.9,12-26.4,16.6-43,15.4c8.2,6.8,17.2,8.8,26.7,5.3C1080.1,511.2,1085.7,504.1,1087.1,494z"/>
	<path d="M965.9,434c0.5-15.3,8.1-26,21.3-32.4c13.3-6.6,26.4-5.2,38.5,3.6c7.7,5.7,13.3,13,15.8,22.4c1.4,5.1-0.4,9.4-4.2,11.1
		c-4.5,1.9-9.2,0.4-12.1-3.9c-1.9-2.8-3.6-5.6-5.7-8.2c-4.8-6-13.5-8.5-20.8-6c-5.9,2-7.7,6.9-8.6,12.4c-0.4,2.3-0.5,4.6-0.9,6.9
		c-1.1,6.3-5.6,10.2-11.5,10.4c-6,0.1-9.7-3.1-11.1-9.9C966.1,438.2,966.1,436,965.9,434z"/>
	<path d="M1064.8,421c0.3-13.1,13-26.1,27.4-28c16.9-2.2,33.5,8.2,39,24.5c2.3,7,0.6,12.6-4.8,15c-5.9,2.7-11.8,0.2-15.4-6.1
		c-1.9-3.3-3.8-6.7-6.5-9.3c-5.1-5.1-10.2-4.1-13.8,2.2c-1.6,2.7-2.6,5.8-4.3,8.4c-3.2,5.1-8.7,6.9-14.3,5
		C1067.2,431,1064.7,427,1064.8,421z"/>
	<path d="M978.3,366.8c0.1,7.4-2.3,11.3-7.4,13.6c-6.2,2.9-12.1,1.9-17.2-2.3c-7.2-5.9-11.1-14-12.4-23.1c-1.4-9.9,8.3-17,17.2-12.6
		C969.4,347.8,976.2,356.5,978.3,366.8z"/>
	<path d="M906.9,404c-9.7,1.8-25.5-13.9-26.7-24.6c-0.9-8.4,8.1-14.1,17.3-11c8.4,2.8,15.2,8.2,20.3,15.4c3.1,4.3,3.4,8.9,0.9,13.6
		C916.4,402.1,912.7,404.1,906.9,404z"/>
	<path d="M975.7,487.5c-1.8,12.3-8.4,21.7-18.6,28.5c-3.7,2.5-9.5,0.7-11.4-3c-2-4-1.1-7.5,2.6-10.5c2.8-2.3,5.3-5,7.4-7.9
		c3.1-4.2,4.7-8.7,1-13.7c-2.4-3.3-2.2-6.5,1-9.3c3-2.6,7.8-2.4,11,0.4C973.3,476.1,975.9,481.1,975.7,487.5z"/>
	<path d="M903.1,597.4c0.1-5.7,9.6-18.3,15-19.1c2.6-0.4,6.3,0.6,7.9,2.4c1.6,1.8,2.5,6.4,1.3,8c-4.2,5.6-8.9,11.1-14.5,15.2
		C908.2,607.4,902.9,603.5,903.1,597.4z"/>
	<path d="M1010.5,618.5c-0.9,3.4-1.1,7-2.8,9.6c-1.4,2.2-4.6,4.6-6.9,4.4c-2.3-0.2-5.7-3.1-6.2-5.3c-1.2-5.4-1.5-11.1-1.4-16.7
		c0.1-3.7,3.2-6.4,6.7-6.1c2.7,0.2,6.1,2,7.7,4.2C1009.4,611.3,1009.6,615.1,1010.5,618.5z"/>
	<path d="M1089.8,601.1c-2,2.7-3.2,5.7-4.9,6.1c-2.3,0.6-6.1,0-7.6-1.6c-3.2-3.3-5.7-7.4-7.7-11.5c-1.6-3.3-0.4-7.2,2.9-8.5
		c2.5-1,7.2-1.1,8.5,0.4C1084.5,590.4,1086.8,595.7,1089.8,601.1z"/>
	<path d="M1152,466.2c6.5-0.1,14.8,11.2,12.7,17.4c-1.4,4.2-6,6-9.5,3.2c-3.8-3.1-7.3-6.8-10.3-10.7
		C1142.3,472.7,1147.1,466.3,1152,466.2z"/>
	<path class="st0" d="M1087.1,494c-1.4,10.1-7,17.3-16.3,20.7c-9.5,3.5-18.5,1.5-26.7-5.3C1060.8,510.6,1075.2,505.9,1087.1,494z"/>
</g>
</svg>
