<?xml version="1.0" encoding="utf-8"?>
<!-- Generator: Adobe Illustrator 24.0.2, SVG Export Plug-In . SVG Version: 6.00 Build 0)  -->
<svg version="1.1" id="Layer_1" xmlns="http://www.w3.org/2000/svg" xmlns:xlink="http://www.w3.org/1999/xlink" x="0px" y="0px"
	 viewBox="0 0 1920 1080" style="enable-background:new 0 0 1920 1080;" xml:space="preserve">
<g>
	<path d="M1076,683.9c-38.8,33.4-77.2,66.4-116.4,99.3c-4.9,4.1-10.1,8.3-15.9,10.7c-8.9,3.7-19.2-2.8-20.5-12.3
		c-1.4-9.5-2.1-19.1-3.1-28.7c-1.6-16-3.2-32-4.8-48.1c-3.3-38.4-7.8-76.6-11.2-115c-0.7-7.8-1.1-15.6-2.4-23.3
		c-0.4-2.6-2.7-5.9-5.1-7.2c-67.2-36.7-134.6-73.1-202.1-109.3c-8.9-5.3-10.4-18.8-3-26c2.9-2.8,6.5-5.3,10.3-6.7
		c186.1-69.9,372-140.1,558.8-208.3c37.6-13.7,75.3-27,113-40.5c7.5-2.7,15-3.5,22.8-0.9c13.3,4.4,18.9,12.9,15.1,26.2
		c-8.1,28.4-16.1,56.9-25.7,84.9c-56.5,161.3-115.3,321.9-170.9,483.5c-5.3,15.3-19.9,19-32.3,8.8
		C1147,741.8,1111.4,713.6,1076,683.9z M1363,237.2c-0.2-0.3-0.5-0.7-0.7-1c-111.1,122.1-222.1,244.2-333.3,366.4
		c53.6,42.2,106.8,84,160,125.8C1247.2,564.1,1305.1,400.6,1363,237.2z M1302.8,234.8c-0.2-0.4-0.4-0.8-0.6-1.2
		C1119.5,301.7,936.8,369.8,753,438.3c53.2,30.6,107.3,58.9,160.9,88.8c6.9,3.8,7.4,3.8,13.6-1.1
		C1052.6,428.9,1177.6,331.8,1302.8,234.8z M1221.5,342.9c-0.2-0.2-0.4-0.4-0.7-0.7c-93.6,71.9-186.1,145.3-280.1,216.7
		c-2.7,2.1-4.2,4.3-3.8,8c4.4,41,7.7,82.2,13,123.2c7.2-19.7,13.6-39.4,20.1-59c3.5-10.7,6.3-21.7,14.6-30.1
		c30.7-31.2,59.5-64.3,89.2-96.5C1122.6,450.3,1172.9,397.3,1221.5,342.9z M973.2,729.5c25.8-22.1,50.6-43.5,75.6-65
		c-14-11.4-27.6-22.4-41.6-33.9C995.8,663.7,984.7,696.1,973.2,729.5z"/>
	<path d="M710.4,668.9c-13.5,4.7-26,8.9-38.4,13.4c-22.8,7.5-34-22.7-12.8-31.9c30-12.9,60.8-24.4,91.3-36.2
		c4.1-1.6,8.5-2.9,12.9-3.3c14.1-1,21.4,7.2,19.5,21.3c-4.7,33.5-9,67-13.9,100.4c-1.5,8.5-8.9,13.5-18,12.5
		c-9.4-1-14.4-6-13.9-15.4c0.7-13.4,2.3-26.8,3.4-40.2c0.2-2,0.4-3.9-0.3-6.3c-22.4,30.2-43.4,61.4-53.6,98.1
		c-6.3,22.6-8.4,45.3-1.8,68.2c15.4,55.5,85,47.2,127.2,30.9c26.7-9.7,51-23.8,73.8-40.7c5.4-4,11.2-6.6,18-5.4
		c13.1,1.8,17.3,20,7.2,27.9c-9.3,7.7-18.8,15.4-28.9,22c-47.9,31.1-119.9,55-175.8,34.7c-79-29.2-66.4-135-33-195.3
		C683.7,703.9,696.8,686.6,710.4,668.9z"/>
</g>
</svg>
