<?xml version="1.0" encoding="utf-8"?>
<!-- Generator: Adobe Illustrator 24.0.2, SVG Export Plug-In . SVG Version: 6.00 Build 0)  -->
<svg version="1.1" id="Layer_1" xmlns="http://www.w3.org/2000/svg" xmlns:xlink="http://www.w3.org/1999/xlink" x="0px" y="0px"
	 viewBox="0 0 1080 1080" style="enable-background:new 0 0 1080 1080;" xml:space="preserve">
<style type="text/css">
	.st0{fill:#FDD700;}
	.st1{fill:none;stroke:#000000;stroke-width:20.0627;stroke-miterlimit:10;}
	.st2{fill:#CCCB31;}
	.st3{fill:#FFFFFF;}
	.st4{fill:none;stroke:#000000;stroke-width:12.5392;stroke-miterlimit:10;}
	.st5{fill:none;stroke:#000000;stroke-width:15.047;stroke-miterlimit:10;}
	.st6{fill:none;stroke:#000000;stroke-width:10.0313;stroke-miterlimit:10;}
</style>
<g>
	<path d="M42.3,506.5l7.4-47.9c6.9,1.7,14.5,2.6,22.6,2.6c9.2,0,16.9-2.7,23.2-8c6.3-5.3,11-12.4,13.9-21.3l2.6-8.2L35.6,239.6h60.5
		l37.5,110.2c3.5,9.4,6.2,19.7,8.2,30.8c2-11.1,4.7-21.4,8.2-30.8l37.5-110.2h59.4l-85.4,205.3c-8.9,21-20.1,37.2-33.6,48.4
		c-13.5,11.3-30.9,16.9-52.2,16.9C61.9,510.2,50.7,509,42.3,506.5"/>
	<path d="M270.6,423.9c-15.6-9-27.8-21.3-36.7-36.7c-8.9-15.5-13.4-32.4-13.4-50.7c0-18.3,4.5-35.3,13.4-50.9
		c8.9-15.6,21.2-27.9,36.7-36.9c15.6-9,33.2-13.5,52.7-13.5c19.5,0,37.1,4.5,52.7,13.5c15.6,9,27.8,21.3,36.7,36.9
		c8.9,15.6,13.4,32.5,13.4,50.9c0,18.3-4.5,35.2-13.4,50.7c-8.9,15.5-21.2,27.7-36.7,36.7c-15.6,9-33.2,13.5-52.7,13.5
		C303.8,437.4,286.2,432.9,270.6,423.9 M277.1,364.3c4.3,8.4,10.5,15.1,18.6,20c8,5,17.3,7.4,27.7,7.4c10.4,0,19.6-2.5,27.7-7.4
		c8-4.9,14.2-11.6,18.6-20c4.3-8.4,6.5-17.7,6.5-27.8c0-10.1-2.2-19.4-6.7-27.8c-4.5-8.4-10.6-15.2-18.6-20.2
		c-7.9-5.1-17.1-7.6-27.5-7.6c-10.4,0-19.6,2.5-27.5,7.6c-7.9,5.1-14.1,11.8-18.6,20.2c-4.5,8.4-6.7,17.7-6.7,27.8
		C270.6,346.6,272.8,355.9,277.1,364.3"/>
	<path d="M466.6,427.2c-11.1-6.6-19.9-15.8-26.4-27.8c-6.4-12-9.7-25.9-9.7-41.8v-118h50.1v105.8c0,31.9,12.9,47.9,38.6,47.9
		c11.4,0,20.9-4,28.6-12.1c7.7-8,11.5-20,11.5-35.8V239.6h50.1v193h-48.6v-29c-4.7,11.4-11.6,19.8-20.8,25.2
		c-9.2,5.4-21.2,8.2-36,8.2C490.2,437.1,477.7,433.8,466.6,427.2"/>
	<path d="M611.4,238.8l10.4-3.7c7.9-2.7,13.8-5.6,17.6-8.5c3.8-3,6.6-6.9,8.4-11.9c-3,0.7-5.8,1.1-8.5,1.1c-7.4,0-14.1-3-20-8.9
		c-5.9-5.9-8.9-12.9-8.9-20.8c0-7.9,3-14.8,9.1-20.6c6.1-5.8,13.2-8.7,21.3-8.7c11.1,0,20.1,3.8,26.9,11.5
		c6.8,7.7,10.2,18.2,10.2,31.6c0,14.1-4.1,26.4-12.4,36.9c-8.3,10.5-19.5,18.3-33.6,23.2l-10.4,3.7L611.4,238.8z"/>
	<rect x="686" y="161.6" width="50.1" height="271"/>
	<rect x="749.8" y="161.6" width="50.1" height="271"/>
	<path d="M96.9,773.8c-15.1-5.6-28.2-14.9-39.3-28L88.7,709c8.7,9.9,17.9,16.8,27.7,20.8c9.8,4,21.1,5.9,34,5.9
		c8.9,0,17.2-2.3,24.9-6.9c7.7-4.6,13.8-10.9,18.4-18.9c4.6-8,6.9-17,6.9-26.9v-8.5c-5.7,9.7-13.1,17-22.3,22.1
		c-9.2,5.1-21.2,7.6-36,7.6c-17.3,0-33.2-4.4-47.5-13.2c-14.4-8.8-25.6-20.8-33.8-36c-8.2-15.2-12.2-32-12.2-50.3
		c0-18.3,4.1-35.1,12.2-50.3c8.2-15.2,19.4-27.2,33.8-36c14.3-8.8,30.2-13.2,47.5-13.2c15.3,0,27.7,2.7,36.9,8
		c9.3,5.3,16.6,13.1,22.1,23.2V510h49.4V686c0,19.5-4.3,36.6-12.8,51c-8.5,14.5-20.4,25.6-35.6,33.4c-15.2,7.8-32.6,11.7-52.2,11.7
		C129.7,782.1,112,779.3,96.9,773.8 M112.7,643.1c9.3,10.3,21.8,15.4,37.7,15.4c16.1,0,28.8-5.1,38.2-15.2
		c9.4-10.1,14.1-23,14.1-38.6c0-15.6-4.7-28.5-14.1-38.6c-9.4-10.1-22.1-15.2-38.2-15.2c-15.8,0-28.4,5.1-37.7,15.2
		c-9.3,10.2-13.9,23-13.9,38.6C98.7,620,103.4,632.8,112.7,643.1"/>
	<path d="M302.9,694.6c-14.6-8.7-26-20.5-34.1-35.4c-8.1-14.8-12.2-31.2-12.2-49.2c0-17.7,4.2-34.1,12.6-49.2
		c8.4-15.1,19.9-27,34.6-35.9c14.7-8.9,31.2-13.3,49.4-13.3c18.2,0,34.5,4.4,49,13.3c14.5,8.9,25.7,20.8,33.7,35.7
		c8,15,12,31.4,12,49.4c0,6-0.5,11.7-1.4,17.2H306.9c2.9,11.3,8.3,20.3,16.3,27.1c8,6.8,18,10.2,30,10.2c10.1,0,19-2.3,26.9-7
		c7.9-4.7,14.1-10.7,18.7-18.1l37.7,28.4c-7.7,12-18.9,21.6-33.7,28.9c-14.8,7.3-31.4,10.9-49.5,10.9
		C334.3,707.7,317.5,703.4,302.9,694.6 M399.2,591c-2.9-10.8-8.5-19.7-16.9-26.9c-8.4-7.2-18.3-10.8-29.8-10.8
		c-11.3,0-21,3.5-29.3,10.4c-8.3,6.9-13.7,16-16.3,27.3H399.2z"/>
	<path d="M483.2,688.6c-9.9-9.7-14.8-24.7-14.8-45.3v-90.6h-27.1V510h27.1v-39l50.1-5.2V510h40.8v42.7h-40.8v88
		c0,11.9,5.2,17.8,15.6,17.8h20.8v44.5h-27.5C507.8,703.1,493.1,698.2,483.2,688.6"/>
	<path d="M608.4,443.6c5.8-5.7,12.9-8.5,21.3-8.5c8.7,0,15.8,2.8,21.5,8.5c5.7,5.7,8.5,12.6,8.5,20.8c0,8.4-2.8,15.5-8.5,21.2
		c-5.7,5.7-12.9,8.5-21.5,8.5c-8.4,0-15.5-2.9-21.3-8.7c-5.8-5.8-8.7-12.8-8.7-21C599.7,456.2,602.6,449.3,608.4,443.6 M604.9,510
		H655v193h-50.1V510z"/>
	<path d="M697.7,688.6c-9.9-9.7-14.8-24.7-14.8-45.3v-90.6h-27.1V510h27.1v-39l50.1-5.2V510h40.8v42.7H733v88
		c0,11.9,5.2,17.8,15.6,17.8h20.8v44.5h-27.5C722.3,703.1,707.6,698.2,697.7,688.6"/>
	<path d="M777.5,698.2c-6.4-6.4-9.7-14.1-9.7-23c0-8.9,3.2-16.5,9.7-22.8c6.4-6.3,14.3-9.5,23.8-9.5c9.4,0,17.3,3.2,23.6,9.5
		c6.3,6.3,9.5,13.9,9.5,22.8c0,9.2-3.2,16.9-9.5,23.2c-6.3,6.3-14.2,9.5-23.6,9.5C791.8,707.9,783.9,704.7,777.5,698.2"/>
</g>
<g>
	<path class="st0" d="M472.2,778.2c73,26.6,153.7,44.7,236.2,50.9c9.8,0.7,19.6,1.3,29.4,1.7c7.9-0.4,15.8-1,23.7-1.8
		c76.9-7.5,152.8-32.8,220.6-81c8.2-5.8,18-13.2,29.1-22.5c-24.8-63.1-80.7-107.1-145.7-107.1c-62.1,0-115.9,40.2-142.2,98.8
		c-26.9-26.4-65.2-42.9-107.7-42.9C545.9,674.3,487.6,718.6,472.2,778.2"/>
	<path class="st1" d="M472.2,778.2c73,26.6,153.7,44.7,236.2,50.9c9.8,0.7,19.6,1.3,29.4,1.7c7.9-0.4,15.8-1,23.7-1.8
		c76.9-7.5,152.8-32.8,220.6-81c8.2-5.8,18-13.2,29.1-22.5c-24.8-63.1-80.7-107.1-145.7-107.1c-62.1,0-115.9,40.2-142.2,98.8
		c-26.9-26.4-65.2-42.9-107.7-42.9C545.9,674.3,487.6,718.6,472.2,778.2z"/>
	<path class="st2" d="M703.7,829.2c0.1,0.7,0.2,1.4,0.4,2.2c10.1,0,20.1-0.2,30.2-0.6C724.1,830.4,713.9,829.9,703.7,829.2"/>
	<path class="st2" d="M734.3,830.7c8.1,0.3,16.2,0.5,24.3,0.6c0.1-0.7,0.3-1.5,0.4-2.2C750.7,829.8,742.5,830.4,734.3,830.7"/>
	<path class="st3" d="M472.2,811.1c0,68.6,59.6,124.2,133.1,124.2c41.1,0,77.9-17.4,102.3-44.8c30.8,46.1,84.9,76.7,146.5,76.7
		c95.9,0,173.7-74.3,173.7-165.9c0-24-5.3-46.8-14.9-67.4c-12,8.6-22.8,15.4-31.7,20.7c-81.4,48.8-173.5,72-266,76
		c-83.6-3.5-165.8-21-239.4-48.3C473.4,791.6,472.2,801.2,472.2,811.1"/>
	<path class="st1" d="M472.2,811.1c0,68.6,59.6,124.2,133.1,124.2c41.1,0,77.9-17.4,102.3-44.8c30.8,46.1,84.9,76.7,146.5,76.7
		c95.9,0,173.7-74.3,173.7-165.9c0-24-5.3-46.8-14.9-67.4c-12,8.6-22.8,15.4-31.7,20.7c-81.4,48.8-173.5,72-266,76
		c-83.6-3.5-165.8-21-239.4-48.3C473.4,791.6,472.2,801.2,472.2,811.1z"/>
	<path class="st4" d="M427,726.5c0.3,1.3,0.7,2.7,1.2,4.2c2.9,9.4,8.4,22.7,19,34.9c27.3,31.3,64.8,27.7,70.2,27.1"/>
	<path class="st5" d="M707.2,831.4c-1.9,0-3.9,0-5.8-0.1"/>
	<path class="st4" d="M981.8,754.9c9.4-5.2,25.7-15.9,38.9-35.3c19-27.8,20-56.1,19.8-67"/>
	<path d="M580.5,831.4c-4.3,14.4,15.7,38.5,38.6,38.6c22.9,0,42.8-24.2,38.6-38.6c-3.9-12.9-26.9-16.2-37.8-16.4
		C607.7,814.9,584.3,818.3,580.5,831.4"/>
	<path class="st6" d="M580.5,831.4c-4.3,14.4,15.7,38.5,38.6,38.6c22.9,0,42.8-24.2,38.6-38.6c-3.9-12.9-26.9-16.2-37.8-16.4
		C607.7,814.9,584.3,818.3,580.5,831.4z"/>
	<path d="M793.6,830.5c-3.9,15.3,16.1,38.5,38.6,38.6c22.7,0,42.7-23.6,38.6-38.6c-3.4-12.4-22.9-16.4-26.9-17.2
		C824.9,809.5,797.5,815.2,793.6,830.5"/>
	<path class="st6" d="M793.6,830.5c-3.9,15.3,16.1,38.5,38.6,38.6c22.7,0,42.7-23.6,38.6-38.6c-3.4-12.4-22.9-16.4-26.9-17.2
		C824.9,809.5,797.5,815.2,793.6,830.5z"/>
</g>
</svg>
